<?xml version="1.0" encoding="utf-8"?>
<!-- Generator: Adobe Illustrator 27.3.1, SVG Export Plug-In . SVG Version: 6.00 Build 0)  -->
<svg version="1.1" id="Layer_1" xmlns="http://www.w3.org/2000/svg" xmlns:xlink="http://www.w3.org/1999/xlink" x="0px" y="0px"
	 viewBox="0 0 113.14 108.99" style="enable-background:new 0 0 113.14 108.99;" xml:space="preserve">
<style type="text/css">
	.st0{fill-rule:evenodd;clip-rule:evenodd;fill:#E5E5E5;}
	.st1{fill:url(#SVGID_1_);}
	.st2{fill:#F7FBFC;}
	.st3{fill:url(#SVGID_00000106860184769548933170000000058507840822420397_);}
	.st4{fill:url(#SVGID_00000066473362148527991070000014531808363808081050_);}
	.st5{fill:url(#SVGID_00000137831383756094569710000015289664162271241354_);}
	.st6{fill:url(#SVGID_00000103979232453430716250000015432821682919538623_);}
	.st7{fill:url(#SVGID_00000005241084448440717820000013340683188782161821_);}
	.st8{fill:url(#SVGID_00000100362057336704222190000001259358239324825249_);}
	.st9{fill:url(#SVGID_00000031927323431121661790000016339928807396321172_);}
	.st10{fill:url(#SVGID_00000168812720700592897850000004912286983883569052_);}
	.st11{fill:url(#SVGID_00000041296999064864515430000004658013113265435305_);}
	.st12{fill:url(#SVGID_00000142152542605591528540000017146591082442337200_);}
	.st13{fill:url(#SVGID_00000109741840627040535220000002941035646420131456_);}
	.st14{fill:url(#SVGID_00000110428375442918247710000002607826199795290513_);}
	.st15{fill:url(#SVGID_00000168088710594407821880000012727359347889373625_);}
	.st16{fill:url(#SVGID_00000036249164075526847230000005330892078217109937_);}
	.st17{fill:url(#SVGID_00000169527320944809858300000017558810283938718101_);}
	.st18{fill:url(#SVGID_00000106869010544045206810000007362693633387666564_);}
	.st19{fill:url(#SVGID_00000115474297126618602450000006126205364489222316_);}
	.st20{fill:url(#SVGID_00000044166234740247827440000002378538611182760097_);}
	.st21{fill:url(#SVGID_00000100378272924238102470000005295518286232836007_);}
	.st22{fill:url(#SVGID_00000145024773875371838580000018012857356596293275_);}
	.st23{fill:url(#SVGID_00000165219801565451798310000005184584940726677137_);}
	.st24{fill:url(#SVGID_00000039121205810196820060000010673973042193823132_);}
	.st25{fill:url(#SVGID_00000147198917478366474910000009269472155858661031_);}
	.st26{fill:url(#SVGID_00000158023242651830510410000015084734033396899257_);}
	.st27{fill:url(#SVGID_00000124852460538981511930000003705193615128090270_);}
	.st28{fill:url(#SVGID_00000028319734215877392920000004003324388142975392_);}
	.st29{fill:url(#SVGID_00000047767689136614298680000004569551867158195372_);}
	.st30{fill:url(#SVGID_00000025443343649251640940000008971420561958063259_);}
	.st31{fill:url(#SVGID_00000062872049323428045480000004822943137146608046_);}
	.st32{fill:url(#SVGID_00000116202784471153692500000008425340213075221123_);}
	.st33{fill:url(#SVGID_00000129185683100717068510000012614972712276960664_);}
	.st34{fill:url(#SVGID_00000026146017924390683330000001844307296433985153_);}
	.st35{fill:url(#SVGID_00000048460984051357486660000001251008193566108095_);}
	.st36{fill:url(#SVGID_00000103243821940210762440000012056889205209592968_);}
	.st37{fill:url(#SVGID_00000155831800170118699490000003932011210079168420_);}
	.st38{fill:url(#SVGID_00000039127151687546765380000008481951235017801903_);}
	.st39{fill:url(#SVGID_00000136384147774834824610000013516878953692626107_);}
	.st40{fill:url(#SVGID_00000093135184855069326950000013908609178241374856_);}
</style>
<g>
	<linearGradient id="SVGID_1_" gradientUnits="userSpaceOnUse" x1="5.0493" y1="54.6605" x2="108.4254" y2="54.6605">
		<stop  offset="0" style="stop-color:#8000FF"/>
		<stop  offset="1" style="stop-color:#DF00FF"/>
	</linearGradient>
	<path class="st1" d="M56.74,106.35L56.74,106.35c-28.55,0-51.69-23.14-51.69-51.69v0c0-28.55,23.14-51.69,51.69-51.69h0
		c28.55,0,51.69,23.14,51.69,51.69v0C108.43,83.21,85.28,106.35,56.74,106.35z"/>
	<g>
		<g>
			<path class="st2" d="M44.85,44.32c0.05-0.3,0.11-0.66,0.17-1.02l-4.64,2.18c0.68,0,1.38,0,2,0L44.85,44.32z"/>
			<path class="st2" d="M48.1,42.79l21.5-10.12c0-0.41,0-0.65,0-0.65s0.01-0.12-0.01-0.29L48.1,41.85L48.1,42.79z"/>
			<path class="st2" d="M61.83,45.13c0.21,0.19,0.54,0.37,1.06,0.36c0.05,0,0.11,0,0.18,0l6.51-3.06c0-0.29,0-0.6,0-0.94
				L61.83,45.13z"/>
			<path class="st2" d="M63.25,30.78c-0.63,0-1.3,0-2,0l-24.63,11.6c0,0.35,0,0.67,0,0.94L63.25,30.78z"/>
			<path class="st2" d="M59.8,30.78c-0.65,0-1.32,0-2,0l-21.18,9.98c0,0.33,0,0.64,0,0.94L59.8,30.78z"/>
			<path class="st2" d="M43.97,45.42c0.1-0.03,0.2-0.08,0.28-0.13L43.97,45.42z"/>
			<path class="st2" d="M56.35,30.78c-0.66,0-1.33,0-2,0l-17.73,8.35c0,0.32,0,0.63,0,0.94L56.35,30.78z"/>
			<path class="st2" d="M67.98,45.48c0.38,0,0.61,0,0.61,0s0.57,0,0.86-0.69L67.98,45.48z"/>
			<path class="st2" d="M69.59,35.92c0-0.33,0-0.64,0-0.94L48.12,45.09l0,0.94L69.59,35.92z"/>
			<path class="st2" d="M66.54,45.48l3.06-1.44c0-0.08,0.01-0.17,0-0.26c0-0.16-0.01-0.39-0.01-0.68l-5.05,2.38
				C65.18,45.48,65.89,45.48,66.54,45.48z"/>
			<path class="st2" d="M69.58,39.85l-8.27,3.89l0.18,0.86l8.08-3.81C69.58,40.49,69.58,40.18,69.58,39.85z"/>
			<path class="st2" d="M69.59,34.29c0-0.34,0-0.66,0-0.94L48.11,43.47l0,0.94L69.59,34.29z"/>
			<path class="st2" d="M45.27,41.81h1.45l22.63-10.66c-0.17-0.2-0.46-0.36-0.94-0.37c-0.05,0-0.14,0-0.27,0L37.25,45.33
				c0.19,0.1,0.44,0.16,0.76,0.16c0.23,0,0.54,0,0.91,0l6.21-2.93C45.22,42.13,45.27,41.81,45.27,41.81z"/>
			<path class="st2" d="M58,67.37c0-0.3,0-0.61,0-0.94l-9.97,4.69c-0.12,0.27-0.31,0.52-0.6,0.61c-0.89,0.27-1.46,0.43-1.46,0.43
				s-0.95,0.31-0.95,1.04c0,0.06,0,0.15,0,0.28L58,67.37z"/>
			<path class="st2" d="M60.95,73.21c0,0,0-0.02-0.01-0.05l-15.95,7.51c0,0.28,0,0.45,0,0.45s0.05,0.18,0.24,0.39l15.73-7.41
				C60.95,73.56,60.95,73.21,60.95,73.21z"/>
			<path class="st2" d="M60.97,76.41l-11.94,5.62c0.6,0,1.28,0,2,0l9.94-4.68C60.97,77.03,60.97,76.72,60.97,76.41z"/>
			<path class="st2" d="M60.96,74.79l-15.13,7.13c0.22,0.08,0.5,0.14,0.85,0.13c0.17,0,0.48-0.01,0.9-0.01l13.39-6.31
				C60.96,75.39,60.96,75.08,60.96,74.79z"/>
			<path class="st2" d="M64.7,30.78L36.62,44c0,0.2,0,0.31,0,0.31s0,0.28,0.16,0.56l29.92-14.09C66.14,30.78,65.46,30.78,64.7,30.78
				z"/>
			<path class="st2" d="M45.99,30.78c-0.7,0-1.37,0-2,0l-7.37,3.47c0,0.3,0,0.61,0,0.94L45.99,30.78z"/>
			<path class="st2" d="M52.9,30.78c-0.67,0-1.34,0-2,0l-14.28,6.72c0,0.31,0,0.63,0,0.94L52.9,30.78z"/>
			<path class="st2" d="M49.45,30.78c-0.68,0-1.35,0-2,0l-10.82,5.1c0,0.31,0,0.62,0,0.94L49.45,30.78z"/>
			<path class="st2" d="M42.53,30.79c-0.75,0-1.42,0-2,0l-3.91,1.84c0,0.26,0,0.58,0,0.94L42.53,30.79z"/>
			<path class="st2" d="M39.08,30.79c-0.55,0-0.86,0-0.86,0s-1.57-0.11-1.6,1.16L39.08,30.79z"/>
			<path class="st2" d="M58.04,44.61c0-0.34,0-0.66,0-0.94l-9.91,4.67l0,0.94L58.04,44.61z"/>
			<path class="st2" d="M57.99,69c0-0.27,0-0.59,0-0.94l-12.98,6.11c0,0.28,0,0.6,0,0.94L57.99,69z"/>
			<path class="st2" d="M48.23,70.35l9.77-4.6c0-0.3,0-0.62,0-0.94l-9.76,4.6l0,0.82C48.24,70.22,48.24,70.27,48.23,70.35z"/>
			<path class="st2" d="M58.01,62.49c0-0.31,0-0.62,0-0.94l-9.79,4.61l0,0.94L58.01,62.49z"/>
			<path class="st2" d="M58,70.62c-0.02-0.13-0.02-0.27-0.02-0.43c0-0.06,0-0.23,0.01-0.5L45.01,75.8c0,0.31,0,0.62,0,0.94L58,70.62
				z"/>
			<path class="st2" d="M58.01,60.87c0-0.31,0-0.63,0-0.94l-9.8,4.61l0,0.94L58.01,60.87z"/>
			<path class="st2" d="M58.01,64.12c0-0.31,0-0.62,0-0.94l-9.78,4.6l0,0.94L58.01,64.12z"/>
			<path class="st2" d="M61,80.58c0-0.25-0.01-0.57-0.01-0.94l-5.07,2.39c0.74,0,1.42,0,1.99,0L61,80.58z"/>
			<path class="st2" d="M59.04,71.76c-0.2-0.05-0.34-0.11-0.49-0.2c-0.13-0.08-0.26-0.19-0.36-0.34l-13.19,6.21
				c0,0.32,0,0.64,0,0.94L59.04,71.76z"/>
			<path class="st2" d="M60.96,81.28l-1.61,0.76c0.26,0,0.4,0,0.4,0S60.72,82.17,60.96,81.28z"/>
			<path class="st2" d="M60.77,72.57c-0.13-0.26-0.34-0.52-0.69-0.62L45,79.05c0,0.34,0,0.66,0,0.94L60.77,72.57z"/>
			<path class="st2" d="M60.98,78.96c0-0.3-0.01-0.61-0.01-0.94l-8.5,4c0.67,0,1.34,0,2,0L60.98,78.96z"/>
			<path class="st2" d="M58.03,52.74c0-0.32,0-0.63,0-0.94l-9.86,4.64l0,0.94L58.03,52.74z"/>
			<path class="st2" d="M58.04,46.23c0-0.33,0-0.64,0-0.94l-9.9,4.66l0,0.94L58.04,46.23z"/>
			<path class="st2" d="M58.04,47.86c0-0.32,0-0.64,0-0.94l-9.89,4.66l0,0.94L58.04,47.86z"/>
			<path class="st2" d="M58.03,49.48c0-0.32,0-0.63,0-0.94l-9.88,4.65l0,0.94L58.03,49.48z"/>
			<path class="st2" d="M58.02,59.24c0-0.31,0-0.63,0-0.94l-9.81,4.62l0,0.94L58.02,59.24z"/>
			<path class="st2" d="M58.04,42.98c0-0.43,0-0.75,0-0.94l-9.92,4.67l0,0.94L58.04,42.98z"/>
			<path class="st2" d="M58.52,41.81h2l9.07-4.27c0-0.32,0-0.63,0-0.94L58.52,41.81z"/>
			<path class="st2" d="M58.03,51.11c0-0.32,0-0.63,0-0.94l-9.87,4.65l0,0.94L58.03,51.11z"/>
			<path class="st2" d="M58.02,55.99c0-0.31,0-0.63,0-0.94l-9.83,4.63l0,0.94L58.02,55.99z"/>
			<path class="st2" d="M58.02,57.61c0-0.31,0-0.63,0-0.94L48.2,61.3l0,0.94L58.02,57.61z"/>
			<path class="st2" d="M58.03,54.36c0-0.32,0-0.63,0-0.94l-9.84,4.64l0,0.94L58.03,54.36z"/>
			<path class="st2" d="M61,42.27l0.18,0.86l8.4-3.96c0-0.31,0-0.63,0-0.94L61,42.27z"/>
		</g>
		
			<linearGradient id="SVGID_00000172416072342126540000000015450405765826673852_" gradientUnits="userSpaceOnUse" x1="24.9894" y1="54.231" x2="92.9816" y2="54.231">
			<stop  offset="0" style="stop-color:#8000FF"/>
			<stop  offset="1" style="stop-color:#DF00FF"/>
		</linearGradient>
		<path style="fill:url(#SVGID_00000172416072342126540000000015450405765826673852_);" d="M65.81,81.19c-0.08,0-0.14,0-0.19-0.01
			c-0.59,0-5.47-0.01-9.09-0.01c-2.19,0-3.51,0-3.91,0.01c-0.03,0-0.06,0-0.09,0c-1.84,0-2.68-1.17-2.89-1.86l-0.06-0.19l0-0.2
			c0-0.07,0.03-7.2,0.03-7.92c0-1.17,0.94-1.99,1.87-2.3l0.03-0.01l0.03-0.01c0.01,0,0.48-0.13,1.23-0.36
			c0.03-0.1,0.06-0.24,0.07-0.35l-0.14-27.04h-0.39c-0.08,0.5-0.18,1.07-0.25,1.47l-0.01,0.04c-0.22,1.25-1.3,2.16-2.58,2.16
			c-0.75,0-2.12,0-3.35,0c-1.04,0-1.77,0-2.18,0l-0.03,0c-1.97,0-2.7-1.53-2.7-2.5V29.8c0-1.48,1.16-2.52,2.83-2.52
			c0.05,0,0.1,0,0.13,0c0.74,0,13.11-0.01,21.73-0.01c5.28,0,8.04,0,8.45,0.01c1.01,0.02,1.6,0.46,1.91,0.83
			c0.58,0.67,0.6,1.46,0.58,1.77c0,0.76-0.04,10.07,0,11.68c0.02,1.02-0.24,1.82-0.79,2.38c-0.62,0.63-1.34,0.68-1.54,0.68
			c-0.03,0-2.05-0.01-3.72-0.01c-0.96,0-1.61,0-1.95,0.01c-0.02,0-0.04,0-0.06,0c-1.48,0-2.41-0.97-2.64-1.86l-0.01-0.03l-0.38-1.78
			h-0.47c-0.01,5.56-0.04,26.34-0.06,27.1c0,0.1,0,0.17,0.01,0.22c0.11,0.04,0.31,0.07,0.79,0.15l0.1,0.02
			c1.31,0.22,1.98,1.41,2.06,2.49l0,0.05l0,0.05c0,0.06,0.03,6.21,0.06,7.58c0.02,0.96-0.36,1.55-0.68,1.88
			C67.13,80.94,66.51,81.19,65.81,81.19C65.81,81.19,65.81,81.19,65.81,81.19z"/>
		<path class="st2" d="M63.97,39.63h2.86l0.6,2.8c0,0,0.23,0.89,1.4,0.87s5.69,0,5.69,0s1.05,0,1.01-1.71
			c-0.04-1.71,0-11.76,0-11.76s0.14-1.19-1.2-1.22s-30.18,0-30.18,0s-1.6-0.12-1.6,1.19s0,12.32,0,12.32s0,1.19,1.4,1.18
			c1.1-0.01,4.26,0,5.54,0c0.63,0,1.17-0.44,1.27-1.06c0-0.01,0-0.02,0-0.03c0.15-0.9,0.44-2.58,0.44-2.58h2.83l0.15,28.4
			c0,0-0.06,1.28-0.82,1.52c-0.89,0.27-1.46,0.43-1.46,0.43s-0.95,0.31-0.95,1.04s-0.03,7.92-0.03,7.92s0.28,0.95,1.68,0.92
			s13.08,0,13.08,0s1.28,0.17,1.25-1.22c-0.03-1.4-0.06-7.6-0.06-7.6s-0.09-1.14-0.96-1.28c-0.87-0.15-1.12-0.18-1.44-0.38
			c-0.31-0.19-0.6-0.52-0.57-1.37C63.94,67.16,63.97,39.63,63.97,39.63z"/>
	</g>
</g>
</svg>
