<?xml version="1.0" encoding="utf-8"?>
<!-- Generator: Adobe Illustrator 27.3.1, SVG Export Plug-In . SVG Version: 6.00 Build 0)  -->
<svg version="1.1" id="Layer_1" xmlns="http://www.w3.org/2000/svg" xmlns:xlink="http://www.w3.org/1999/xlink" x="0px" y="0px"
	 viewBox="0 0 1000 286.6" style="enable-background:new 0 0 1000 286.6;" xml:space="preserve">
<style type="text/css">
	.st0{fill-rule:evenodd;clip-rule:evenodd;fill:#E5E5E5;}
	.st1{fill:url(#SVGID_1_);}
	.st2{fill:#F7FBFC;}
	.st3{fill:url(#SVGID_00000123417970559813650100000005882673852581309111_);}
	.st4{fill:url(#SVGID_00000121251597186285545600000001071352422181543057_);}
	.st5{fill:url(#SVGID_00000092424977336549892930000006257478309263499697_);}
	.st6{fill:url(#SVGID_00000151516838087803504890000016514633180684078250_);}
	.st7{fill:url(#SVGID_00000088848835106653390340000000188826363958900156_);}
	.st8{fill:url(#SVGID_00000103969857375659024070000012354762059475978935_);}
	.st9{fill:url(#SVGID_00000156565293470297098810000014163501329047681456_);}
	.st10{fill:url(#SVGID_00000170960168695374302570000007285055173266612122_);}
	.st11{fill:url(#SVGID_00000030445746730091555180000017295295822547728809_);}
	.st12{fill:url(#SVGID_00000104703862617066659060000007532977278723671474_);}
	.st13{fill:url(#SVGID_00000114049791435211921240000004138410219168316545_);}
	.st14{fill:url(#SVGID_00000041997694926032778900000000292513358396647587_);}
	.st15{fill:url(#SVGID_00000087375817137258486020000012250786572140754564_);}
	.st16{fill:url(#SVGID_00000169540714465202833240000016752473926746673053_);}
	.st17{fill:url(#SVGID_00000008130604968893899410000007063346115936293539_);}
	.st18{fill:url(#SVGID_00000067209173297086063730000015809790583051089809_);}
	.st19{fill:url(#SVGID_00000022528009091683611740000017969616012376812422_);}
	.st20{fill:url(#SVGID_00000011739467081401226600000014345699010111339908_);}
	.st21{fill:url(#SVGID_00000075139025246579020210000001423235957890941067_);}
	.st22{fill:url(#SVGID_00000087399229424121053250000007932359176087840954_);}
	.st23{fill:url(#SVGID_00000142135105717130367230000013531450879453475517_);}
	.st24{fill:url(#SVGID_00000019675924770113061870000018125285195041087888_);}
	.st25{fill:url(#SVGID_00000049189334818606682730000003358743392313548717_);}
	.st26{fill:url(#SVGID_00000093882665929398317660000004569127723474828957_);}
	.st27{fill:url(#SVGID_00000000911075507273306250000017778885677328851135_);}
	.st28{fill:url(#SVGID_00000039125577376228791740000010454551363958332094_);}
	.st29{fill:url(#SVGID_00000032617236179552509600000008721930646780356769_);}
	.st30{fill:url(#SVGID_00000028309248476916393340000010764482690256097948_);}
	.st31{fill:url(#SVGID_00000000180292594213483030000001581169246316731063_);}
	.st32{fill:url(#SVGID_00000062876072658998763220000016391141438250362513_);}
	.st33{fill:url(#SVGID_00000102538680086943355860000001541909214491144870_);}
	.st34{fill:url(#SVGID_00000177452694731748271880000014248295396906646943_);}
	.st35{fill:url(#SVGID_00000106128251227434537800000006716007917800314510_);}
	.st36{fill:url(#SVGID_00000026140847678701481620000014342450433470203008_);}
	.st37{fill:url(#SVGID_00000100363208469950415800000004829688955002936974_);}
</style>
<path class="st0" d="M0,0h1000v286.6H0V0z"/>
<g>
	<linearGradient id="SVGID_1_" gradientUnits="userSpaceOnUse" x1="451.6156" y1="94.7989" x2="548.3844" y2="94.7989">
		<stop  offset="0" style="stop-color:#8000FF"/>
		<stop  offset="1" style="stop-color:#DF00FF"/>
	</linearGradient>
	<path class="st1" d="M537.69,143.18h-75.37c-5.91,0-10.7-4.79-10.7-10.7V57.11c0-5.91,4.79-10.7,10.7-10.7h75.37
		c5.91,0,10.7,4.79,10.7,10.7v75.37C548.38,138.39,543.59,143.18,537.69,143.18z"/>
	<g>
		<g>
			<path class="st2" d="M482.98,84.39c0.06-0.37,0.14-0.83,0.21-1.29l-5.83,2.74c0.85,0,1.74,0,2.51,0L482.98,84.39z"/>
			<path class="st2" d="M487.07,82.47l27.02-12.73c0-0.52,0-0.82,0-0.82s0.02-0.15-0.01-0.36l-27.02,12.73L487.07,82.47z"/>
			<path class="st2" d="M504.33,85.41c0.27,0.24,0.68,0.46,1.34,0.45c0.07,0,0.14,0,0.23,0l8.18-3.85c0-0.36,0-0.76,0-1.18
				L504.33,85.41z"/>
			<path class="st2" d="M506.11,67.37c-0.79,0-1.63,0-2.51,0l-30.97,14.58c0,0.45,0,0.84,0,1.18L506.11,67.37z"/>
			<path class="st2" d="M501.78,67.37c-0.82,0-1.66,0-2.52,0l-26.63,12.54c0,0.41,0,0.81,0,1.18L501.78,67.37z"/>
			<path class="st2" d="M481.87,85.77c0.13-0.04,0.25-0.1,0.36-0.17L481.87,85.77z"/>
			<path class="st2" d="M497.44,67.37c-0.83,0-1.67,0-2.52,0l-22.29,10.5c0,0.4,0,0.8,0,1.18L497.44,67.37z"/>
			<path class="st2" d="M512.06,85.86c0.47,0,0.77,0,0.77,0s0.72,0,1.08-0.87L512.06,85.86z"/>
			<path class="st2" d="M514.08,73.83c0-0.41,0-0.81,0-1.19l-27,12.72l0.01,1.18L514.08,73.83z"/>
			<path class="st2" d="M510.24,85.85l3.85-1.81c0-0.1,0.01-0.21,0-0.33c0-0.2-0.01-0.49-0.01-0.85l-6.35,2.99
				C508.54,85.85,509.43,85.85,510.24,85.85z"/>
			<path class="st2" d="M514.07,78.78l-10.4,4.9l0.23,1.08l10.16-4.79C514.07,79.58,514.07,79.18,514.07,78.78z"/>
			<path class="st2" d="M514.09,71.79c0-0.43,0-0.83,0-1.19l-27.02,12.72l0.01,1.18L514.09,71.79z"/>
			<path class="st2" d="M483.51,81.24h1.82l28.45-13.4c-0.22-0.25-0.58-0.45-1.18-0.46c-0.06,0-0.18,0-0.34,0l-38.82,18.28
				c0.24,0.12,0.55,0.2,0.96,0.2c0.29,0,0.68,0,1.15,0l7.81-3.68C483.44,81.64,483.51,81.24,483.51,81.24z"/>
			<path class="st2" d="M499.51,113.38c0-0.37,0-0.77,0-1.19l-12.53,5.9c-0.15,0.34-0.39,0.65-0.76,0.77
				c-1.12,0.34-1.83,0.54-1.83,0.54s-1.2,0.39-1.2,1.3c0,0.07,0,0.19,0,0.36L499.51,113.38z"/>
			<path class="st2" d="M503.22,120.72c0,0,0-0.02-0.01-0.06l-20.05,9.44c0,0.35,0,0.56,0,0.56s0.07,0.23,0.3,0.49l19.77-9.31
				C503.22,121.15,503.22,120.72,503.22,120.72z"/>
			<path class="st2" d="M503.24,124.73l-15.01,7.07c0.76,0,1.62,0,2.52,0l12.5-5.89C503.24,125.52,503.24,125.12,503.24,124.73z"/>
			<path class="st2" d="M503.23,122.7l-19.02,8.96c0.28,0.1,0.63,0.17,1.07,0.16c0.21,0,0.6-0.01,1.13-0.01l16.84-7.93
				C503.23,123.46,503.23,123.06,503.23,122.7z"/>
			<path class="st2" d="M507.93,67.37L472.63,84c0,0.25,0,0.39,0,0.39s0,0.35,0.2,0.71l37.61-17.71
				C509.74,67.37,508.9,67.37,507.93,67.37z"/>
			<path class="st2" d="M484.41,67.38c-0.88,0-1.72,0-2.52,0l-9.26,4.36c0,0.37,0,0.77,0,1.18L484.41,67.38z"/>
			<path class="st2" d="M493.1,67.37c-0.84,0-1.68,0-2.52,0l-17.95,8.45c0,0.39,0,0.79,0,1.18L493.1,67.37z"/>
			<path class="st2" d="M488.76,67.37c-0.86,0-1.7,0-2.52,0l-13.61,6.41c0,0.39,0,0.78,0,1.18L488.76,67.37z"/>
			<path class="st2" d="M480.07,67.38c-0.94,0-1.79,0-2.52,0l-4.92,2.32c0,0.33,0,0.73,0,1.18L480.07,67.38z"/>
			<path class="st2" d="M475.72,67.38c-0.69,0-1.08,0-1.08,0s-1.97-0.14-2.01,1.45L475.72,67.38z"/>
			<path class="st2" d="M499.56,84.75c0-0.43,0-0.83,0-1.19l-12.46,5.87l0.01,1.18L499.56,84.75z"/>
			<path class="st2" d="M499.5,115.42c0-0.34,0-0.74,0.01-1.19l-16.31,7.68c0,0.35,0,0.75,0,1.19L499.5,115.42z"/>
			<path class="st2" d="M487.23,117.12l12.28-5.78c0-0.38,0-0.78,0-1.19l-12.28,5.78l0.01,1.03
				C487.25,116.95,487.24,117.02,487.23,117.12z"/>
			<path class="st2" d="M499.52,107.24c0-0.39,0-0.78,0-1.19l-12.31,5.8l0.01,1.18L499.52,107.24z"/>
			<path class="st2" d="M499.51,117.46c-0.02-0.16-0.03-0.34-0.02-0.55c0-0.07,0-0.29,0.01-0.63l-16.31,7.68c0,0.38,0,0.78,0,1.19
				L499.51,117.46z"/>
			<path class="st2" d="M499.53,105.2c0-0.39,0-0.79,0-1.19l-12.32,5.8l0.01,1.18L499.53,105.2z"/>
			<path class="st2" d="M499.52,109.29c0-0.39,0-0.78,0-1.19l-12.29,5.79l0.01,1.18L499.52,109.29z"/>
			<path class="st2" d="M503.28,129.98c0-0.31-0.01-0.71-0.01-1.18l-6.38,3c0.93,0,1.78,0,2.51,0L503.28,129.98z"/>
			<path class="st2" d="M500.82,118.89c-0.25-0.06-0.42-0.13-0.62-0.25c-0.17-0.1-0.32-0.23-0.45-0.43l-16.58,7.81
				c0,0.4,0,0.8,0,1.19L500.82,118.89z"/>
			<path class="st2" d="M503.23,130.87l-2.02,0.95c0.32,0,0.51,0,0.51,0S502.94,131.98,503.23,130.87z"/>
			<path class="st2" d="M502.99,119.91c-0.16-0.33-0.42-0.66-0.87-0.78l-18.96,8.93c0,0.43,0,0.83,0,1.19L502.99,119.91z"/>
			<path class="st2" d="M503.26,127.95c0-0.38-0.01-0.77-0.01-1.18l-10.69,5.03c0.84,0,1.68,0,2.51,0L503.26,127.95z"/>
			<path class="st2" d="M499.55,94.98c0-0.4,0-0.79,0-1.19l-12.39,5.84l0.01,1.18L499.55,94.98z"/>
			<path class="st2" d="M499.56,86.8c0-0.41,0-0.81,0-1.19l-12.44,5.86l0.01,1.18L499.56,86.8z"/>
			<path class="st2" d="M499.56,88.84c0-0.41,0-0.8,0-1.19l-12.43,5.85l0.01,1.18L499.56,88.84z"/>
			<path class="st2" d="M499.55,90.89c0-0.4,0-0.8,0-1.19l-12.42,5.85l0.01,1.18L499.55,90.89z"/>
			<path class="st2" d="M499.53,103.15c0-0.39,0-0.79,0-1.19l-12.33,5.81l0.01,1.18L499.53,103.15z"/>
			<path class="st2" d="M499.56,82.71c0-0.54,0-0.94,0-1.19l-12.47,5.87l0.01,1.18L499.56,82.71z"/>
			<path class="st2" d="M500.16,81.24h2.52l11.4-5.37c0-0.4,0-0.8,0-1.19L500.16,81.24z"/>
			<path class="st2" d="M499.55,92.93c0-0.4,0-0.8,0-1.19l-12.4,5.84l0.01,1.18L499.55,92.93z"/>
			<path class="st2" d="M499.54,99.06c0-0.4,0-0.79,0-1.19l-12.36,5.82l0.01,1.18L499.54,99.06z"/>
			<path class="st2" d="M499.54,101.11c0-0.39,0-0.79,0-1.19l-12.35,5.82l0.01,1.18L499.54,101.11z"/>
			<path class="st2" d="M499.54,97.02c0-0.4,0-0.79,0-1.19l-12.38,5.83l0.01,1.18L499.54,97.02z"/>
			<path class="st2" d="M503.28,81.82l0.23,1.08l10.56-4.97c0-0.39,0-0.79,0-1.19L503.28,81.82z"/>
		</g>
		
			<linearGradient id="SVGID_00000021118335595751562270000013547768916861341081_" gradientUnits="userSpaceOnUse" x1="458.0091" y1="96.8545" x2="543.4901" y2="96.8545">
			<stop  offset="0" style="stop-color:#8000FF"/>
			<stop  offset="1" style="stop-color:#DF00FF"/>
		</linearGradient>
		<path style="fill:url(#SVGID_00000021118335595751562270000013547768916861341081_);" d="M509.33,130.75c-0.1,0-0.18,0-0.24-0.01
			c-0.74,0-6.87-0.02-11.42-0.02c-2.76,0-4.41,0.01-4.91,0.02c-0.04,0-0.08,0-0.11,0c-2.31,0-3.37-1.47-3.63-2.34l-0.07-0.24l0-0.25
			c0-0.09,0.04-9.05,0.04-9.96c0-1.47,1.18-2.51,2.35-2.89l0.03-0.01l0.03-0.01c0.01,0,0.6-0.17,1.54-0.45
			c0.04-0.12,0.08-0.3,0.09-0.44l-0.17-33.99h-0.5c-0.11,0.63-0.23,1.34-0.31,1.85l-0.01,0.05c-0.27,1.57-1.63,2.71-3.24,2.71
			c-0.94,0-2.66,0-4.22,0c-1.3,0-2.22,0-2.74,0.01l-0.03,0c-2.48,0-3.4-1.93-3.4-3.14V66.14c0-1.87,1.46-3.17,3.55-3.17
			c0.07,0,0.12,0,0.16,0c0.93,0,16.49-0.02,27.32-0.02c6.63,0,10.11,0.01,10.62,0.02c1.27,0.03,2.01,0.58,2.41,1.04
			c0.73,0.84,0.75,1.84,0.72,2.23c0,0.95-0.05,12.65,0,14.68c0.03,1.28-0.3,2.29-0.99,2.99c-0.78,0.8-1.68,0.86-1.94,0.86
			c-0.03,0-2.58-0.01-4.68-0.01c-1.2,0-2.03,0-2.45,0.01c-0.03,0-0.05,0-0.07,0c-1.86,0-3.03-1.21-3.32-2.34l-0.01-0.03l-0.48-2.24
			h-0.58c-0.01,6.99-0.05,33.11-0.08,34.07c0,0.13,0,0.22,0.01,0.28c0.13,0.04,0.39,0.09,0.99,0.19l0.13,0.02
			c1.65,0.27,2.49,1.77,2.59,3.13l0,0.06l0,0.06c0,0.08,0.04,7.81,0.07,9.53c0.03,1.21-0.45,1.95-0.85,2.36
			C511,130.43,510.21,130.75,509.33,130.75C509.33,130.75,509.33,130.75,509.33,130.75z"/>
		<path class="st2" d="M507.02,78.5h3.59l0.76,3.52c0,0,0.29,1.12,1.76,1.1c1.47-0.02,7.15,0,7.15,0s1.32,0,1.27-2.15
			s0-14.79,0-14.79s0.18-1.5-1.5-1.54c-1.68-0.04-37.95,0-37.95,0s-2.01-0.15-2.01,1.5c0,1.65,0,15.49,0,15.49s0,1.49,1.76,1.48
			c1.39-0.01,5.35,0,6.96,0c0.79,0,1.47-0.56,1.6-1.33c0-0.01,0-0.02,0.01-0.03c0.18-1.14,0.55-3.25,0.55-3.25h3.55l0.18,35.71
			c0,0-0.07,1.61-1.03,1.9c-1.12,0.34-1.83,0.54-1.83,0.54s-1.2,0.39-1.2,1.3s-0.04,9.96-0.04,9.96s0.35,1.19,2.11,1.15
			c1.76-0.04,16.45,0,16.45,0s1.61,0.22,1.58-1.54c-0.04-1.76-0.07-9.56-0.07-9.56s-0.11-1.43-1.21-1.61
			c-1.1-0.18-1.41-0.23-1.81-0.47c-0.4-0.24-0.75-0.66-0.72-1.72C506.97,113.11,507.02,78.5,507.02,78.5z"/>
	</g>
</g>
<g>
	
		<linearGradient id="SVGID_00000061461282289199461090000004734890841252147083_" gradientUnits="userSpaceOnUse" x1="663.7565" y1="197.3584" x2="687.0151" y2="197.3584">
		<stop  offset="0" style="stop-color:#8000FF"/>
		<stop  offset="1" style="stop-color:#DF00FF"/>
	</linearGradient>
	<path style="fill:url(#SVGID_00000061461282289199461090000004734890841252147083_);" d="M687.02,216.49
		c-0.15,0.01-0.3,0.03-0.44,0.03c-1.58,0-3.15,0-4.73,0c-0.16,0-0.33-0.01-0.51-0.02c-0.03-0.13-0.06-0.23-0.07-0.34
		c-0.01-0.17,0-0.33,0-0.5c0-5.23,0-10.46,0-15.69c0-0.41-0.02-0.82-0.08-1.22c-0.38-2.36-2.47-4.14-4.29-4.58
		c-3.03-0.73-6.17,0.99-7.06,3.92c-0.2,0.66-0.27,1.34-0.27,2.03c0,3.52,0,7.05,0,10.57c0,1.71,0,3.41,0,5.12c0,0.2,0,0.4,0,0.63
		c-0.14,0.03-0.24,0.07-0.34,0.07c-1.71,0-3.41,0-5.12,0c-0.09,0-0.18-0.03-0.29-0.04c-0.02-0.12-0.04-0.23-0.05-0.33
		c-0.01-0.11,0-0.22,0-0.33c0-12.46,0-24.92,0-37.38c0-0.07-0.01-0.15-0.01-0.22c1.93,0,3.86,0,5.79,0
		c0.01,0.24,0.02,0.48,0.02,0.72c0,2.52,0,5.04,0,7.57c0,0.95,0,1.89,0,2.84c0,0.1-0.05,0.22,0.11,0.31c0.1-0.05,0.22-0.1,0.33-0.16
		c2.6-1.34,5.35-1.65,8.16-0.97c3.72,0.89,6.33,3.19,7.93,6.65c0.47,1.03,0.81,2.11,0.84,3.26c0,0.09,0.05,0.17,0.08,0.26
		C687.02,204.62,687.02,210.55,687.02,216.49z"/>
	
		<linearGradient id="SVGID_00000107579521795260655210000017681817563220529850_" gradientUnits="userSpaceOnUse" x1="312.9848" y1="197.3562" x2="338.8363" y2="197.3562">
		<stop  offset="0" style="stop-color:#8000FF"/>
		<stop  offset="1" style="stop-color:#DF00FF"/>
	</linearGradient>
	<path style="fill:url(#SVGID_00000107579521795260655210000017681817563220529850_);" d="M338.8,178.2
		c0.01,0.15,0.03,0.3,0.03,0.44c0,1.63,0,3.26,0,4.89c0,0.13-0.01,0.26-0.02,0.37c-0.13,0.15-0.29,0.1-0.43,0.1
		c-0.93,0-1.85,0-2.78,0c-2.02,0-4.04,0-6.06,0c-0.2,0-0.41-0.04-0.62,0.05c-0.01,0.09-0.04,0.18-0.04,0.27
		c-0.01,0.19,0,0.37,0,0.56c0,10.27,0,20.54,0,30.81c0,0.24-0.01,0.48-0.01,0.74c-0.12,0.03-0.2,0.06-0.29,0.06
		c-1.74,0-3.49,0-5.23,0c-0.05,0-0.11-0.02-0.19-0.04c-0.02-0.1-0.05-0.2-0.06-0.3c-0.01-0.18,0-0.37,0-0.56
		c0-10.27,0-20.54,0-30.81c0-0.24,0.03-0.48-0.04-0.72c-0.21-0.09-0.41-0.06-0.61-0.06c-2.26,0-4.52,0-6.79,0c-0.7,0-1.41,0-2.11,0
		c-0.18,0-0.37-0.02-0.55-0.03c0-1.93,0-3.85,0-5.79C321.59,178.2,330.2,178.2,338.8,178.2z"/>
	
		<linearGradient id="SVGID_00000085946942905909229000000004808062888856573366_" gradientUnits="userSpaceOnUse" x1="564.3011" y1="197.3574" x2="590.0514" y2="197.3574">
		<stop  offset="0" style="stop-color:#8000FF"/>
		<stop  offset="1" style="stop-color:#DF00FF"/>
	</linearGradient>
	<path style="fill:url(#SVGID_00000085946942905909229000000004808062888856573366_);" d="M589.97,178.2
		c0.03,0.12,0.07,0.25,0.07,0.37c0,1.69,0,3.38,0,5.06c0,0.11-0.03,0.21-0.05,0.36c-0.57,0.04-1.12,0.01-1.68,0.02
		c-0.54,0-1.08,0-1.61,0c-0.56,0-1.11,0-1.67,0c-0.54,0-1.08,0-1.61,0c-0.56,0-1.11,0-1.67,0c-0.53,0-1.07-0.02-1.64,0.02
		c-0.02,0.13-0.04,0.24-0.05,0.34c-0.01,0.19,0,0.37,0,0.56c0,10.25,0,20.51,0,30.76c0,0.24,0,0.48,0,0.74
		c-0.14,0.03-0.24,0.07-0.34,0.07c-1.71,0-3.41,0-5.12,0c-0.09,0-0.18-0.02-0.29-0.04c-0.02-0.12-0.04-0.23-0.04-0.33
		c-0.01-0.19,0-0.37,0-0.56c0-10.25,0-20.51,0-30.76c0-0.24,0-0.48-0.01-0.7c-0.22-0.15-0.43-0.1-0.63-0.1c-2.89,0-5.79,0-8.68,0
		c-0.2,0-0.41,0.04-0.63-0.07c-0.01-0.11-0.04-0.24-0.04-0.36c0-1.65,0-3.3,0-4.95c0-0.14,0.05-0.29,0.07-0.43
		C572.91,178.2,581.44,178.2,589.97,178.2z"/>
	
		<linearGradient id="SVGID_00000178903914482275656960000010729616648084984749_" gradientUnits="userSpaceOnUse" x1="633.057" y1="202.4084" x2="656.3611" y2="202.4084">
		<stop  offset="0" style="stop-color:#8000FF"/>
		<stop  offset="1" style="stop-color:#DF00FF"/>
	</linearGradient>
	<path style="fill:url(#SVGID_00000178903914482275656960000010729616648084984749_);" d="M646.28,216.6
		c-0.3-0.18-0.64-0.16-0.97-0.2c-3.03-0.38-5.62-1.66-7.83-3.76c-0.92-0.87-1.73-1.84-2.39-2.92c-1.12-1.81-1.77-3.78-1.97-5.9
		c-0.15-1.6-0.06-3.19,0.3-4.75c0.43-1.91,1.26-3.64,2.45-5.19c1.21-1.57,2.66-2.89,4.39-3.88c2.07-1.18,4.31-1.75,6.69-1.79
		c2.3-0.04,4.49,0.43,6.55,1.45c0.99,0.49,2,1.15,2.8,1.84c0.01,0.11,0.04,0.23,0.04,0.36c0,2.56,0,5.12,0,7.68
		c0,0.12-0.03,0.24-0.04,0.37c-0.19,0-0.25-0.14-0.33-0.23c-0.88-0.98-1.76-1.96-2.64-2.94c-1.24-1.39-2.77-2.29-4.61-2.59
		c-2.08-0.34-4.07-0.08-5.88,1.07c-1.74,1.11-3.05,2.61-3.62,4.63c-1.37,4.84,1.21,8.64,4.7,10.18c1.39,0.61,2.85,0.75,4.36,0.57
		c1.66-0.19,3.1-0.84,4.34-1.94c0.24-0.21,0.46-0.43,0.67-0.67c0.89-0.99,1.78-1.99,2.67-2.98c0.08-0.09,0.18-0.18,0.28-0.28
		c0.14,0.17,0.09,0.34,0.09,0.5c0,2.08,0,4.15,0,6.23c0,0.41,0,0.82,0,1.22c0,0.17-0.01,0.33-0.02,0.5
		c-0.93,0.78-1.92,1.42-2.99,1.93c-1.36,0.65-2.79,1.08-4.3,1.26c-0.33,0.04-0.67,0.03-0.97,0.2
		C647.47,216.6,646.88,216.6,646.28,216.6z"/>
	
		<linearGradient id="SVGID_00000074439914640883067560000004401381169355053238_" gradientUnits="userSpaceOnUse" x1="516.5493" y1="197.3447" x2="534.9027" y2="197.3447">
		<stop  offset="0" style="stop-color:#8000FF"/>
		<stop  offset="1" style="stop-color:#DF00FF"/>
	</linearGradient>
	<path style="fill:url(#SVGID_00000074439914640883067560000004401381169355053238_);" d="M527.32,178.2c0,1.15,0.01,2.3,0.01,3.45
		c0,1.97,0,3.93,0,5.9c0,0.2-0.03,0.4,0.05,0.61c0.21,0.07,0.41,0.04,0.61,0.04c2.08,0,4.15,0,6.23,0c0.2,0,0.4-0.03,0.63,0.05
		c0.01,0.11,0.03,0.22,0.03,0.32c0.05,2.15,0.02,4.84-0.05,5.35c-0.18,0.1-0.39,0.05-0.59,0.05c-2.08,0-4.15,0-6.23,0
		c-0.2,0-0.4,0.01-0.63,0.01c-0.02,0.14-0.04,0.24-0.05,0.35c-0.01,0.13,0,0.26,0,0.39c0,5.06,0,10.12,0,15.19c0,0.22,0,0.44,0,0.69
		c0.15,0.03,0.28,0.07,0.4,0.07c0.48,0.01,0.96,0.01,1.45,0.02c0.2,0,0.41,0,0.64,0c0.03,0.12,0.07,0.22,0.07,0.33
		c0,1.71,0,3.41,0,5.12c0,0.09-0.02,0.18-0.03,0.29c-0.11,0.02-0.19,0.04-0.28,0.04c-1.13,0.02-2.26-0.01-3.38-0.22
		c-0.47-0.09-0.95-0.2-1.39-0.37c-1.74-0.66-2.73-1.96-3.15-3.74c-0.1-0.44-0.11-0.88-0.11-1.33c0-5.36,0-10.72,0-16.07
		c0-0.22,0-0.44,0-0.63c-0.17-0.17-0.34-0.12-0.5-0.12c-1.26,0-2.52,0-3.78,0c-0.2,0-0.4,0-0.63,0c-0.03-0.11-0.07-0.2-0.07-0.29
		c0-1.74,0-3.49,0-5.23c0-0.07,0.02-0.14,0.04-0.25c0.19-0.01,0.37-0.02,0.55-0.03c1.26,0,2.52,0,3.78,0c0.18,0,0.36-0.02,0.52-0.02
		c0.04-0.07,0.07-0.1,0.07-0.13c0.01-3.28,0.01-6.56,0.02-9.84C523.46,178.2,525.39,178.2,527.32,178.2z"/>
	
		<linearGradient id="SVGID_00000019665000836207860250000004704450204627927737_" gradientUnits="userSpaceOnUse" x1="362.3888" y1="197.3449" x2="380.5746" y2="197.3449">
		<stop  offset="0" style="stop-color:#8000FF"/>
		<stop  offset="1" style="stop-color:#DF00FF"/>
	</linearGradient>
	<path style="fill:url(#SVGID_00000019665000836207860250000004704450204627927737_);" d="M373.19,178.2
		c-0.01,0.13-0.02,0.26-0.02,0.39c0,2.99,0,5.97,0,8.96c0,0.2-0.03,0.4,0.06,0.63c0.61,0.07,1.22,0.02,1.82,0.03
		c0.61,0.01,1.22,0,1.84,0c0.59,0,1.19,0,1.78,0c0.61,0,1.22,0,1.85,0c0.09,0.66,0.03,1.29,0.04,1.91c0.01,0.63,0,1.26,0,1.89
		c0,0.63,0,1.26,0,1.86c-0.21,0.18-0.43,0.11-0.62,0.11c-2.08,0.01-4.15,0-6.23,0c-0.2,0-0.4,0.01-0.63,0.02
		c-0.01,0.13-0.03,0.24-0.04,0.34c-0.01,0.13,0,0.26,0,0.39c0,5.06,0,10.12,0,15.19c0,0.22,0.01,0.44,0.01,0.69
		c0.15,0.03,0.27,0.06,0.4,0.07c0.5,0.01,1,0.01,1.5,0.02c0.18,0,0.37,0,0.57,0c0.03,0.11,0.07,0.19,0.07,0.27c0,1.72,0,3.45,0,5.17
		c0,0.09-0.03,0.18-0.04,0.28c-0.09,0.02-0.16,0.05-0.23,0.05c-1.17,0.03-2.34-0.01-3.49-0.22c-0.47-0.09-0.95-0.2-1.39-0.38
		c-1.92-0.77-2.93-2.24-3.17-4.27c-0.04-0.29-0.02-0.59-0.02-0.89c0-5.38,0-10.75,0-16.13c0-0.18,0.04-0.37-0.08-0.56
		c-0.5-0.07-1.02-0.02-1.54-0.03c-0.54-0.01-1.08,0-1.61,0c-0.52,0-1.03,0-1.58,0c-0.03-0.11-0.06-0.2-0.06-0.28
		c0-1.74,0-3.49,0-5.23c0-0.07,0.02-0.14,0.04-0.24c0.32-0.06,0.64-0.03,0.94-0.03c0.33-0.01,0.67,0,1,0c0.32,0,0.63,0,0.95,0
		c0.33,0,0.67,0,1,0c0.31,0,0.63,0,0.97,0c0.03-0.12,0.07-0.22,0.08-0.33c0.01-0.17,0-0.33,0-0.5c0-2.82,0-5.64,0-8.45
		c0-0.24,0.02-0.48,0.03-0.72C369.33,178.2,371.26,178.2,373.19,178.2z"/>
	
		<linearGradient id="SVGID_00000160167647619619125150000007493976850100525756_" gradientUnits="userSpaceOnUse" x1="347.6487" y1="182.3837" x2="353.4586" y2="182.3837">
		<stop  offset="0" style="stop-color:#8000FF"/>
		<stop  offset="1" style="stop-color:#DF00FF"/>
	</linearGradient>
	<path style="fill:url(#SVGID_00000160167647619619125150000007493976850100525756_);" d="M353.38,178.2
		c0.03,0.14,0.07,0.29,0.07,0.43c0,2.5,0,5.01,0,7.51c0,0.12-0.03,0.25-0.04,0.37c-0.48,0.07-5.19,0.07-5.72,0
		c-0.07-0.18-0.05-0.38-0.05-0.58c0-1.67,0-3.34,0-5.01c0-0.7,0-1.41,0-2.11c0-0.2,0.03-0.4,0.05-0.61
		C349.6,178.2,351.49,178.2,353.38,178.2z"/>
	
		<linearGradient id="SVGID_00000025417467933661379850000012176437670478037434_" gradientUnits="userSpaceOnUse" x1="597.486" y1="202.4244" x2="625.5901" y2="202.4244">
		<stop  offset="0" style="stop-color:#8000FF"/>
		<stop  offset="1" style="stop-color:#DF00FF"/>
	</linearGradient>
	<path style="fill:url(#SVGID_00000025417467933661379850000012176437670478037434_);" d="M625.54,204.04
		c-0.1,0.02-0.19,0.04-0.28,0.05c-0.19,0.01-0.37,0-0.56,0c-6.84,0-13.69,0-20.53,0c-0.24,0-0.48-0.03-0.75,0.05
		c0.02,0.16,0.02,0.3,0.05,0.44c0.14,0.54,0.33,1.06,0.6,1.55c0.81,1.46,1.92,2.63,3.35,3.49c1.17,0.7,2.46,1.02,3.82,1.06
		c2.21,0.06,4.16-0.6,5.81-2.1c0.69-0.63,1.25-1.36,1.72-2.17c0.13-0.22,0.26-0.45,0.38-0.66c0.52-0.07,5.74-0.06,6.19,0.01
		c-0.01,0.07-0.01,0.15-0.03,0.21c-0.44,1.04-0.86,2.09-1.41,3.08c-1.39,2.54-3.34,4.52-5.9,5.88c-1.56,0.83-3.22,1.29-4.98,1.48
		c-1.79,0.19-3.56,0.05-5.29-0.42c-2.56-0.69-4.7-2.07-6.5-3.99c-1.71-1.82-2.88-3.94-3.43-6.39c-0.26-1.16-0.35-2.35-0.33-3.54
		c0.04-1.95,0.45-3.82,1.28-5.6c1.45-3.1,4.78-6.69,9.51-7.74c1.44-0.32,2.89-0.42,4.37-0.31c1.88,0.14,3.66,0.59,5.31,1.49
		c3.88,2.12,6.37,5.3,7.3,9.65c0.3,1.41,0.35,2.83,0.32,4.26C625.58,203.88,625.56,203.95,625.54,204.04z M604.28,198.07
		c0.13,0.04,0.18,0.07,0.23,0.07c4.68,0,9.37,0,14.05,0c0.05,0,0.1-0.03,0.15-0.04c-0.24-0.64-1.27-1.77-2.27-2.53
		c-1.22-0.92-2.59-1.42-4.1-1.54C608.87,193.75,606.26,195.2,604.28,198.07z"/>
	
		<linearGradient id="SVGID_00000061464308600317299090000010859834400759656877_" gradientUnits="userSpaceOnUse" x1="446.7444" y1="202.4243" x2="474.8469" y2="202.4243">
		<stop  offset="0" style="stop-color:#8000FF"/>
		<stop  offset="1" style="stop-color:#DF00FF"/>
	</linearGradient>
	<path style="fill:url(#SVGID_00000061464308600317299090000010859834400759656877_);" d="M474.8,204.03
		c-0.1,0.02-0.19,0.05-0.28,0.05c-0.19,0.01-0.37,0-0.56,0c-6.84,0-13.69,0-20.53,0c-0.24,0-0.48,0.01-0.75,0.01
		c0.01,0.12,0,0.21,0.02,0.29c0.16,0.77,0.46,1.49,0.88,2.15c0.67,1.07,1.51,1.97,2.54,2.7c1.08,0.77,2.28,1.2,3.6,1.37
		c1.22,0.15,2.41,0.06,3.58-0.29c1.61-0.48,2.92-1.44,3.96-2.75c0.33-0.42,0.6-0.89,0.89-1.34c0.11-0.17,0.21-0.35,0.31-0.52
		c2.06,0,4.1,0,6.17,0c-0.01,0.08,0,0.15-0.02,0.21c-0.43,1.04-0.86,2.09-1.4,3.09c-1.46,2.68-3.54,4.74-6.28,6.1
		c-1.49,0.74-3.08,1.15-4.74,1.31c-1.76,0.17-3.48,0.02-5.18-0.43c-2.21-0.59-4.13-1.72-5.79-3.29c-1.46-1.38-2.63-2.97-3.41-4.83
		c-0.69-1.64-1.02-3.36-1.05-5.14c-0.03-1.67,0.19-3.29,0.72-4.87c0.7-2.06,1.85-3.83,3.38-5.36c1.65-1.66,3.58-2.87,5.83-3.54
		c1.71-0.51,3.45-0.67,5.22-0.54c1.87,0.14,3.67,0.58,5.31,1.49c4.01,2.2,6.52,5.51,7.37,10.03c0.24,1.26,0.27,2.54,0.26,3.82
		C474.84,203.84,474.82,203.93,474.8,204.03z M453.58,198.09c0.47,0.07,12.94,0.11,14.2,0.05c0.07,0,0.13-0.02,0.21-0.03
		c-0.3-0.73-1.43-1.94-2.47-2.68c-1.23-0.87-2.6-1.33-4.09-1.42c-1.64-0.1-3.21,0.17-4.66,0.99
		C455.53,195.7,454.16,197.01,453.58,198.09z"/>
	
		<linearGradient id="SVGID_00000057863797381227584520000015145096966206432919_" gradientUnits="userSpaceOnUse" x1="388.0399" y1="202.3568" x2="408.7448" y2="202.3568">
		<stop  offset="0" style="stop-color:#8000FF"/>
		<stop  offset="1" style="stop-color:#DF00FF"/>
	</linearGradient>
	<path style="fill:url(#SVGID_00000057863797381227584520000015145096966206432919_);" d="M394.69,193.99
		c-0.75-1.84-1.5-3.65-2.24-5.47c-0.03-0.08-0.04-0.17-0.07-0.29c0.18-0.01,0.32-0.03,0.46-0.03c1.91,0,3.82,0.01,5.73-0.01
		c5-0.03,9.12,3.86,9.98,8.26c0.13,0.67,0.19,1.36,0.19,2.05c0,5.78,0,11.57,0,17.35c0,0.18-0.01,0.37-0.01,0.57
		c-0.13,0.03-0.23,0.07-0.34,0.07c-1.71,0-3.41,0-5.12,0c-0.09,0-0.18-0.03-0.3-0.04c-0.03-0.32-0.05-0.62-0.08-0.97
		c-2.62,1.17-5.26,1.35-7.94,0.43c-2.08-0.72-3.72-2.05-5.02-3.8c-2.52-3.42-2.52-8.47-0.14-11.86c0.55-0.78,1.18-1.48,1.89-2.1
		c0.72-0.63,1.51-1.14,2.37-1.54c0.86-0.4,1.76-0.67,2.71-0.81c0.94-0.14,1.88-0.15,2.83-0.05c0.94,0.1,1.85,0.35,2.73,0.67
		c0.09-0.12,0.01-0.2-0.04-0.27c-0.91-1.35-2.13-2.14-3.8-2.15c-1.06-0.01-2.11-0.01-3.17-0.01
		C395.12,193.99,394.92,193.99,394.69,193.99z M393.74,206.11c-0.11,2.39,1.98,4.6,4.56,4.6c2.51,0,4.59-2.08,4.6-4.59
		c0-2.52-2.11-4.59-4.59-4.6C395.75,201.52,393.63,203.72,393.74,206.11z"/>
	
		<linearGradient id="SVGID_00000114063373647264497300000013319916075889797775_" gradientUnits="userSpaceOnUse" x1="481.2711" y1="202.3567" x2="510.382" y2="202.3567">
		<stop  offset="0" style="stop-color:#8000FF"/>
		<stop  offset="1" style="stop-color:#DF00FF"/>
	</linearGradient>
	<path style="fill:url(#SVGID_00000114063373647264497300000013319916075889797775_);" d="M495.82,197.5
		c0.45-0.49,0.82-1.02,1.21-1.52c0.4-0.51,0.79-1.03,1.19-1.54c0.41-0.53,0.82-1.06,1.22-1.58c0.4-0.51,0.79-1.03,1.19-1.54
		c0.4-0.51,0.79-1.03,1.19-1.54c0.4-0.51,0.79-1.02,1.21-1.56c0.61,0,1.22,0,1.83,0c0.61,0,1.22,0,1.84,0c0.59,0,1.19,0,1.78,0
		c0.6,0,1.21,0,1.9,0c-0.46,0.7-0.94,1.26-1.39,1.84c-0.45,0.59-0.91,1.17-1.36,1.76c-0.45,0.59-0.91,1.17-1.36,1.76
		c-0.45,0.59-0.91,1.17-1.36,1.76c-0.44,0.57-0.89,1.14-1.33,1.71c-0.45,0.59-0.91,1.17-1.36,1.76c-0.45,0.59-0.91,1.17-1.36,1.76
		c-0.45,0.58-0.9,1.17-1.37,1.78c3.63,4.69,7.26,9.36,10.86,14.01c-0.04,0.17-0.14,0.16-0.23,0.16c-0.41,0-0.82,0-1.22,0
		c-1.72,0-3.45,0-5.17,0c-0.2,0-0.41,0-0.63,0c-2.42-3.12-4.82-6.25-7.27-9.4c-2.45,3.16-4.86,6.26-7.25,9.35
		c-0.48,0.07-6.76,0.07-7.25,0.01c-0.08-0.16,0.05-0.24,0.12-0.34c0.98-1.28,1.97-2.55,2.96-3.83c2.45-3.17,4.9-6.34,7.35-9.51
		c0.11-0.14,0.22-0.3,0.34-0.47c-0.72-0.96-1.45-1.89-2.17-2.82c-0.71-0.93-1.43-1.85-2.14-2.77c-0.73-0.94-1.45-1.88-2.18-2.82
		c-0.71-0.92-1.43-1.85-2.14-2.77c-0.72-0.94-1.45-1.88-2.16-2.8c0.08-0.2,0.23-0.13,0.35-0.13c1.65,0,3.3,0,4.95,0
		c0.65,0,1.3,0,1.96,0c0.11,0.14,0.22,0.26,0.33,0.39c2.18,2.81,4.36,5.63,6.54,8.44C495.52,197.19,495.62,197.37,495.82,197.5z"/>
	
		<linearGradient id="SVGID_00000147930454832638029040000014779352690422197419_" gradientUnits="userSpaceOnUse" x1="416.0425" y1="202.3506" x2="439.3518" y2="202.3506">
		<stop  offset="0" style="stop-color:#8000FF"/>
		<stop  offset="1" style="stop-color:#DF00FF"/>
	</linearGradient>
	<path style="fill:url(#SVGID_00000147930454832638029040000014779352690422197419_);" d="M439.29,216.45
		c-0.07,0.02-0.12,0.05-0.17,0.05c-1.76,0-3.52,0.01-5.29,0.01c-0.07,0-0.14-0.03-0.23-0.04c-0.02-0.09-0.05-0.18-0.06-0.27
		c-0.01-0.19,0-0.37,0-0.56c0-5.21,0-10.42,0-15.63c0-0.65-0.06-1.29-0.24-1.92c-0.49-1.71-2.31-3.67-4.59-3.99
		c-2.26-0.32-4.13,0.37-5.59,2.12c-0.84,1.01-1.23,2.19-1.27,3.49c-0.01,0.17,0,0.33,0,0.5c0,5.19,0,10.39,0,15.58
		c0,0.22-0.01,0.44-0.02,0.68c-0.12,0.02-0.21,0.05-0.29,0.05c-1.72,0-3.45,0-5.17,0c-0.07,0-0.15-0.02-0.24-0.03
		c-0.02-0.1-0.06-0.21-0.06-0.31c-0.01-0.17,0-0.33,0-0.5c0-8.88,0-17.77,0-26.65c0-0.24,0-0.48,0-0.74
		c0.12-0.03,0.2-0.06,0.29-0.06c1.74,0,3.49,0,5.23,0c0.07,0,0.14,0.02,0.25,0.03c0.08,0.46-0.01,0.92,0.06,1.35
		c0.18,0.06,0.28-0.05,0.39-0.1c1.29-0.69,2.67-1.11,4.13-1.24c3.65-0.33,6.86,0.68,9.5,3.29c1.93,1.9,3.04,4.22,3.39,6.91
		c0.06,0.48,0.08,0.96,0.08,1.44c0.01,5.32,0,10.65,0,15.97C439.35,216.05,439.38,216.26,439.29,216.45z"/>
	
		<linearGradient id="SVGID_00000007411444553571319470000018126398469778914209_" gradientUnits="userSpaceOnUse" x1="347.6491" y1="203.4141" x2="353.466" y2="203.4141">
		<stop  offset="0" style="stop-color:#8000FF"/>
		<stop  offset="1" style="stop-color:#DF00FF"/>
	</linearGradient>
	<path style="fill:url(#SVGID_00000007411444553571319470000018126398469778914209_);" d="M347.71,190.32
		c0.14-0.01,0.26-0.03,0.39-0.03c1.76,0,3.52-0.01,5.3,0.01c0.03,0.14,0.06,0.24,0.06,0.35c0.01,0.15,0,0.3,0,0.44
		c0,8.21,0,16.43,0,24.64c0,0.24,0.05,0.48-0.07,0.73c-0.12,0.01-0.25,0.04-0.37,0.04c-2.27,0.05-4.78,0.03-5.31-0.06
		c-0.02-0.09-0.04-0.2-0.05-0.3c-0.01-0.11,0-0.22,0-0.33c0-8.27,0-16.54,0-24.81C347.65,190.79,347.63,190.57,347.71,190.32z"/>
</g>
<g>
	
		<linearGradient id="SVGID_00000093143191114674631010000003499975711417683083_" gradientUnits="userSpaceOnUse" x1="395.4969" y1="247.0123" x2="405.1414" y2="247.0123">
		<stop  offset="0" style="stop-color:#8000FF"/>
		<stop  offset="1" style="stop-color:#DF00FF"/>
	</linearGradient>
	<path style="fill:url(#SVGID_00000093143191114674631010000003499975711417683083_);" d="M399.74,247.18l-0.05-0.07l-4.2-6h1.4
		l3.42,4.9l3.43-4.9h1.39l-4.19,5.99l-0.07,0.09v5.72h-1.15V247.18z"/>
	
		<linearGradient id="SVGID_00000020392751824663117010000010282467605372235436_" gradientUnits="userSpaceOnUse" x1="408.3143" y1="248.651" x2="416.8358" y2="248.651">
		<stop  offset="0" style="stop-color:#8000FF"/>
		<stop  offset="1" style="stop-color:#DF00FF"/>
	</linearGradient>
	<path style="fill:url(#SVGID_00000020392751824663117010000010282467605372235436_);" d="M415.59,245.64
		c0.83,0.83,1.25,1.84,1.25,3.01c0,1.17-0.42,2.18-1.25,3.01s-1.84,1.25-3.01,1.25c-1.17,0-2.18-0.42-3.01-1.25
		s-1.25-1.84-1.25-3.01c0-1.17,0.42-2.18,1.25-3.01s1.84-1.25,3.01-1.25C413.75,244.39,414.75,244.81,415.59,245.64z M412.58,245.54
		c-0.86,0-1.6,0.3-2.2,0.91c-0.61,0.61-0.91,1.34-0.91,2.2s0.3,1.6,0.91,2.2s1.34,0.91,2.2,0.91s1.6-0.3,2.2-0.91
		s0.91-1.34,0.91-2.2s-0.3-1.6-0.91-2.2C414.17,245.84,413.44,245.54,412.58,245.54z"/>
	
		<linearGradient id="SVGID_00000133519415873252123910000003359243709574701211_" gradientUnits="userSpaceOnUse" x1="420.0086" y1="248.651" x2="426.8924" y2="248.651">
		<stop  offset="0" style="stop-color:#8000FF"/>
		<stop  offset="1" style="stop-color:#DF00FF"/>
	</linearGradient>
	<path style="fill:url(#SVGID_00000133519415873252123910000003359243709574701211_);" d="M426.89,252.91h-1.15v-0.84
		c0.15-0.16,0.19-0.22,0.14-0.17c-0.67,0.67-1.48,1.01-2.43,1.01c-0.95,0-1.76-0.34-2.43-1.01c-0.67-0.67-1.01-1.48-1.01-2.43v-5.08
		h1.15v5.08c0,0.63,0.22,1.17,0.67,1.62s0.99,0.67,1.62,0.67c0.63,0,1.17-0.22,1.62-0.67c0.44-0.44,0.67-0.98,0.67-1.61v-5.1h1.15
		V252.91z"/>
	
		<linearGradient id="SVGID_00000095338290426416191200000002680891524473420709_" gradientUnits="userSpaceOnUse" x1="430.0643" y1="248.651" x2="433.6697" y2="248.651">
		<stop  offset="0" style="stop-color:#8000FF"/>
		<stop  offset="1" style="stop-color:#DF00FF"/>
	</linearGradient>
	<path style="fill:url(#SVGID_00000095338290426416191200000002680891524473420709_);" d="M430.06,244.39h1.15v0.84
		c-0.15,0.16-0.19,0.22-0.14,0.17c0.67-0.67,1.54-1.01,2.6-1.01v1.15c-0.74,0-1.34,0.22-1.79,0.67c-0.44,0.44-0.67,0.98-0.67,1.61
		v5.1h-1.15V244.39z"/>
	
		<linearGradient id="SVGID_00000012442530361258823740000003766905109622475192_" gradientUnits="userSpaceOnUse" x1="444.0965" y1="247.0123" x2="452.0115" y2="247.0123">
		<stop  offset="0" style="stop-color:#8000FF"/>
		<stop  offset="1" style="stop-color:#DF00FF"/>
	</linearGradient>
	<path style="fill:url(#SVGID_00000012442530361258823740000003766905109622475192_);" d="M445.24,242.26v10.65h-1.15v-11.8h4.26
		c0.95,0,1.76,0.34,2.43,1.01s1.01,1.48,1.01,2.43c0,0.95-0.34,1.76-1.01,2.43s-1.48,1.01-2.43,1.01h-0.92l4.56,4.92h-1.58
		l-5.49-5.91l0.17-0.16l3.25,0.01c0.63,0,1.17-0.22,1.61-0.67c0.45-0.45,0.67-0.99,0.67-1.62s-0.22-1.17-0.67-1.62
		s-0.99-0.67-1.62-0.67H445.24z"/>
	
		<linearGradient id="SVGID_00000152966840611919716700000002886133689800407962_" gradientUnits="userSpaceOnUse" x1="455.1766" y1="248.651" x2="463.6981" y2="248.651">
		<stop  offset="0" style="stop-color:#8000FF"/>
		<stop  offset="1" style="stop-color:#DF00FF"/>
	</linearGradient>
	<path style="fill:url(#SVGID_00000152966840611919716700000002886133689800407962_);" d="M456.32,248.81c0,0.75,0.3,1.43,0.91,2.04
		s1.34,0.91,2.2,0.91s1.6-0.3,2.2-0.91c0.2-0.2,0.38-0.45,0.55-0.74h1.26c-0.27,0.63-0.6,1.14-1,1.54
		c-0.84,0.84-1.84,1.25-3.02,1.25c-1.17,0-2.18-0.42-3.01-1.25s-1.25-1.84-1.25-3.01c0-1.17,0.42-2.18,1.25-3.01
		s1.84-1.25,3.01-1.25c1.17,0,2.18,0.42,3.01,1.25s1.25,1.89,1.25,3.17H456.32z M462.41,247.67c-0.1-0.4-0.36-0.81-0.77-1.22
		c-0.61-0.61-1.34-0.91-2.2-0.91s-1.6,0.3-2.2,0.91c-0.42,0.42-0.67,0.82-0.77,1.22H462.41z"/>
	
		<linearGradient id="SVGID_00000078012824527295023650000018360556986930664603_" gradientUnits="userSpaceOnUse" x1="467.0594" y1="248.651" x2="478.0389" y2="248.651">
		<stop  offset="0" style="stop-color:#8000FF"/>
		<stop  offset="1" style="stop-color:#DF00FF"/>
	</linearGradient>
	<path style="fill:url(#SVGID_00000078012824527295023650000018360556986930664603_);" d="M471.98,247.42
		c0-0.52-0.18-0.97-0.55-1.34c-0.37-0.37-0.81-0.55-1.34-0.55s-0.97,0.18-1.33,0.55c-0.37,0.37-0.55,0.81-0.55,1.34v5.49h-1.15
		v-8.52h1.15v0.63c-0.18,0.18-0.27,0.26-0.25,0.25c0.59-0.59,1.3-0.89,2.14-0.89c0.84,0,1.55,0.3,2.15,0.89
		c0.17,0.18,0.28,0.29,0.31,0.34c0.03-0.05,0.14-0.17,0.32-0.34c0.59-0.59,1.3-0.89,2.14-0.89s1.55,0.3,2.14,0.89
		s0.89,1.31,0.89,2.14v5.49h-1.15v-5.49c0-0.52-0.18-0.97-0.55-1.34c-0.37-0.37-0.81-0.55-1.34-0.55s-0.97,0.18-1.34,0.55
		c-0.37,0.37-0.55,0.81-0.55,1.34v5.49h-1.15V247.42z"/>
	
		<linearGradient id="SVGID_00000062912507870082453340000000049336790615275681_" gradientUnits="userSpaceOnUse" x1="481.3758" y1="248.651" x2="489.8973" y2="248.651">
		<stop  offset="0" style="stop-color:#8000FF"/>
		<stop  offset="1" style="stop-color:#DF00FF"/>
	</linearGradient>
	<path style="fill:url(#SVGID_00000062912507870082453340000000049336790615275681_);" d="M488.65,245.64
		c0.83,0.83,1.25,1.84,1.25,3.01c0,1.17-0.42,2.18-1.25,3.01s-1.84,1.25-3.01,1.25c-1.17,0-2.18-0.42-3.01-1.25
		s-1.25-1.84-1.25-3.01c0-1.17,0.42-2.18,1.25-3.01s1.84-1.25,3.01-1.25C486.81,244.39,487.81,244.81,488.65,245.64z M485.64,245.54
		c-0.86,0-1.6,0.3-2.2,0.91c-0.61,0.61-0.91,1.34-0.91,2.2s0.3,1.6,0.91,2.2s1.34,0.91,2.2,0.91s1.6-0.3,2.2-0.91
		s0.91-1.34,0.91-2.2s-0.3-1.6-0.91-2.2C487.23,245.84,486.5,245.54,485.64,245.54z"/>
	
		<linearGradient id="SVGID_00000169543956113974746840000007861918956237856905_" gradientUnits="userSpaceOnUse" x1="493.0692" y1="248.651" x2="499.9529" y2="248.651">
		<stop  offset="0" style="stop-color:#8000FF"/>
		<stop  offset="1" style="stop-color:#DF00FF"/>
	</linearGradient>
	<path style="fill:url(#SVGID_00000169543956113974746840000007861918956237856905_);" d="M493.07,244.39h1.15v0.84
		c-0.15,0.16-0.19,0.22-0.14,0.17c0.67-0.67,1.48-1.01,2.43-1.01c0.95,0,1.76,0.34,2.43,1.01s1.01,1.48,1.01,2.43v5.08h-1.15v-5.08
		c0-0.63-0.22-1.17-0.67-1.62c-0.45-0.45-0.99-0.67-1.62-0.67c-0.63,0-1.17,0.22-1.62,0.67c-0.44,0.44-0.67,0.98-0.67,1.61v5.1
		h-1.15V244.39z"/>
	
		<linearGradient id="SVGID_00000093898732003431175860000003387886865759383445_" gradientUnits="userSpaceOnUse" x1="503.1092" y1="247.0123" x2="508.3533" y2="247.0123">
		<stop  offset="0" style="stop-color:#8000FF"/>
		<stop  offset="1" style="stop-color:#DF00FF"/>
	</linearGradient>
	<path style="fill:url(#SVGID_00000093898732003431175860000003387886865759383445_);" d="M505.89,245.54v5.98
		c0,0.07,0.02,0.13,0.07,0.18c0.05,0.05,0.3,0.07,0.75,0.07v1.15c-0.77,0-1.28-0.14-1.56-0.41c-0.27-0.27-0.41-0.6-0.41-0.98v-5.98
		h-1.64v-1.15h1.64v-3.28h1.15v3.28h2.46v1.15H505.89z"/>
	
		<linearGradient id="SVGID_00000051357572476515144710000000969954235672309124_" gradientUnits="userSpaceOnUse" x1="511.5106" y1="248.651" x2="520.032" y2="248.651">
		<stop  offset="0" style="stop-color:#8000FF"/>
		<stop  offset="1" style="stop-color:#DF00FF"/>
	</linearGradient>
	<path style="fill:url(#SVGID_00000051357572476515144710000000969954235672309124_);" d="M512.66,248.81c0,0.75,0.3,1.43,0.91,2.04
		s1.34,0.91,2.2,0.91s1.6-0.3,2.2-0.91c0.2-0.2,0.38-0.45,0.55-0.74h1.26c-0.27,0.63-0.6,1.14-1,1.54
		c-0.84,0.84-1.84,1.25-3.02,1.25c-1.17,0-2.18-0.42-3.01-1.25s-1.25-1.84-1.25-3.01c0-1.17,0.42-2.18,1.25-3.01
		s1.84-1.25,3.01-1.25c1.17,0,2.18,0.42,3.01,1.25s1.25,1.89,1.25,3.17H512.66z M518.75,247.67c-0.1-0.4-0.36-0.81-0.77-1.22
		c-0.61-0.61-1.34-0.91-2.2-0.91s-1.6,0.3-2.2,0.91c-0.42,0.42-0.67,0.82-0.77,1.22H518.75z"/>
	
		<linearGradient id="SVGID_00000137851368992613416460000013076589677623684248_" gradientUnits="userSpaceOnUse" x1="530.491" y1="247.0123" x2="540.6512" y2="247.0123">
		<stop  offset="0" style="stop-color:#8000FF"/>
		<stop  offset="1" style="stop-color:#DF00FF"/>
	</linearGradient>
	<path style="fill:url(#SVGID_00000137851368992613416460000013076589677623684248_);" d="M534.75,241.11
		c1.63,0,3.02,0.58,4.17,1.73c1.15,1.15,1.73,2.54,1.73,4.17s-0.58,3.02-1.73,4.17c-1.15,1.15-2.54,1.73-4.17,1.73h-4.26v-11.8
		H534.75z M534.75,251.76c1.32,0,2.44-0.46,3.36-1.39s1.39-2.05,1.39-3.36c0-1.32-0.46-2.44-1.39-3.36s-2.05-1.39-3.36-1.39h-3.11
		v9.5H534.75z"/>
	
		<linearGradient id="SVGID_00000018939209004727678990000006387497041038949308_" gradientUnits="userSpaceOnUse" x1="543.824" y1="248.651" x2="552.3455" y2="248.651">
		<stop  offset="0" style="stop-color:#8000FF"/>
		<stop  offset="1" style="stop-color:#DF00FF"/>
	</linearGradient>
	<path style="fill:url(#SVGID_00000018939209004727678990000006387497041038949308_);" d="M544.97,248.81c0,0.75,0.3,1.43,0.91,2.04
		s1.34,0.91,2.2,0.91s1.6-0.3,2.2-0.91c0.2-0.2,0.38-0.45,0.55-0.74h1.26c-0.27,0.63-0.6,1.14-1,1.54
		c-0.84,0.84-1.84,1.25-3.02,1.25c-1.17,0-2.18-0.42-3.01-1.25s-1.25-1.84-1.25-3.01c0-1.17,0.42-2.18,1.25-3.01
		s1.84-1.25,3.01-1.25c1.17,0,2.18,0.42,3.01,1.25s1.25,1.89,1.25,3.17H544.97z M551.06,247.67c-0.1-0.4-0.36-0.81-0.77-1.22
		c-0.61-0.61-1.34-0.91-2.2-0.91s-1.6,0.3-2.2,0.91c-0.42,0.42-0.67,0.82-0.77,1.22H551.06z"/>
	
		<linearGradient id="SVGID_00000145050476307247262240000001218990907923438269_" gradientUnits="userSpaceOnUse" x1="555.5506" y1="248.651" x2="560.7947" y2="248.651">
		<stop  offset="0" style="stop-color:#8000FF"/>
		<stop  offset="1" style="stop-color:#DF00FF"/>
	</linearGradient>
	<path style="fill:url(#SVGID_00000145050476307247262240000001218990907923438269_);" d="M558.17,248.08
		c0.72,0,1.34,0.24,1.85,0.71c0.51,0.47,0.77,1.04,0.77,1.71s-0.26,1.24-0.77,1.71c-0.51,0.47-1.13,0.71-1.85,0.71
		c-0.72,0-1.34-0.24-1.85-0.71s-0.77-1.16-0.77-2.08h1.15c0,0.6,0.14,1.02,0.43,1.27c0.29,0.25,0.63,0.38,1.04,0.38
		c0.41,0,0.76-0.13,1.04-0.38c0.29-0.25,0.43-0.55,0.43-0.9c0-0.34-0.14-0.64-0.43-0.89c-0.29-0.25-0.63-0.38-1.04-0.38
		c-0.72,0-1.34-0.23-1.85-0.71c-0.51-0.47-0.77-1.04-0.77-1.71s0.26-1.24,0.77-1.71s1.13-0.71,1.85-0.71c0.72,0,1.34,0.24,1.85,0.71
		c0.51,0.47,0.77,1.16,0.77,2.08h-1.15c0-0.59-0.14-1.02-0.43-1.27c-0.29-0.25-0.63-0.38-1.04-0.38c-0.41,0-0.76,0.13-1.04,0.38
		c-0.29,0.25-0.43,0.55-0.43,0.9c0,0.34,0.14,0.64,0.43,0.89C557.41,247.95,557.76,248.08,558.17,248.08z"/>
	
		<linearGradient id="SVGID_00000182500478018918316540000001548223242454060174_" gradientUnits="userSpaceOnUse" x1="563.952" y1="247.0123" x2="570.2449" y2="247.0123">
		<stop  offset="0" style="stop-color:#8000FF"/>
		<stop  offset="1" style="stop-color:#DF00FF"/>
	</linearGradient>
	<path style="fill:url(#SVGID_00000182500478018918316540000001548223242454060174_);" d="M565.1,249.39v3.52h-1.15v-11.8h1.15v6.8
		l3.53-3.52h1.61l-4.27,4.26l4.27,4.26h-1.62L565.1,249.39z"/>
	
		<linearGradient id="SVGID_00000041976822640868095700000004150959512792865182_" gradientUnits="userSpaceOnUse" x1="573.41" y1="247.0123" x2="578.6541" y2="247.0123">
		<stop  offset="0" style="stop-color:#8000FF"/>
		<stop  offset="1" style="stop-color:#DF00FF"/>
	</linearGradient>
	<path style="fill:url(#SVGID_00000041976822640868095700000004150959512792865182_);" d="M576.2,245.54v5.98
		c0,0.07,0.02,0.13,0.07,0.18c0.05,0.05,0.3,0.07,0.75,0.07v1.15c-0.77,0-1.28-0.14-1.56-0.41c-0.27-0.27-0.41-0.6-0.41-0.98v-5.98
		h-1.64v-1.15h1.64v-3.28h1.15v3.28h2.46v1.15H576.2z"/>
	
		<linearGradient id="SVGID_00000158000704469805539050000009964072379159867294_" gradientUnits="userSpaceOnUse" x1="581.8104" y1="248.651" x2="590.3318" y2="248.651">
		<stop  offset="0" style="stop-color:#8000FF"/>
		<stop  offset="1" style="stop-color:#DF00FF"/>
	</linearGradient>
	<path style="fill:url(#SVGID_00000158000704469805539050000009964072379159867294_);" d="M589.08,245.64
		c0.83,0.83,1.25,1.84,1.25,3.01c0,1.17-0.42,2.18-1.25,3.01s-1.84,1.25-3.01,1.25c-1.17,0-2.18-0.42-3.01-1.25
		s-1.25-1.84-1.25-3.01c0-1.17,0.42-2.18,1.25-3.01s1.84-1.25,3.01-1.25C587.24,244.39,588.25,244.81,589.08,245.64z M586.07,245.54
		c-0.86,0-1.6,0.3-2.2,0.91c-0.61,0.61-0.91,1.34-0.91,2.2s0.3,1.6,0.91,2.2s1.34,0.91,2.2,0.91s1.6-0.3,2.2-0.91
		s0.91-1.34,0.91-2.2s-0.3-1.6-0.91-2.2C587.67,245.84,586.93,245.54,586.07,245.54z"/>
	
		<linearGradient id="SVGID_00000142144944180096104210000012977086598657243580_" gradientUnits="userSpaceOnUse" x1="593.4715" y1="250.2896" x2="601.993" y2="250.2896">
		<stop  offset="0" style="stop-color:#8000FF"/>
		<stop  offset="1" style="stop-color:#DF00FF"/>
	</linearGradient>
	<path style="fill:url(#SVGID_00000142144944180096104210000012977086598657243580_);" d="M594.62,256.19h-1.15v-11.8h1.15v1.32
		c-0.08,0.1-0.04,0.07,0.11-0.07c0.83-0.83,1.83-1.25,3.01-1.25s2.18,0.42,3.01,1.25c0.83,0.83,1.25,1.84,1.25,3.01
		c0,1.17-0.42,2.18-1.25,3.01c-0.83,0.83-1.84,1.25-3.01,1.25s-2.18-0.42-3.01-1.25c-0.15-0.14-0.18-0.16-0.11-0.07V256.19z
		 M599.94,250.86c0.61-0.61,0.91-1.34,0.91-2.2s-0.3-1.6-0.91-2.2c-0.61-0.61-1.34-0.91-2.2-0.91s-1.6,0.3-2.2,0.91
		c-0.61,0.61-0.91,1.34-0.91,2.2s0.3,1.6,0.91,2.2s1.34,0.91,2.2,0.91S599.33,251.46,599.94,250.86z"/>
</g>
</svg>
