<?xml version="1.0" encoding="utf-8"?>
<!-- Generator: Adobe Illustrator 27.3.1, SVG Export Plug-In . SVG Version: 6.00 Build 0)  -->
<svg version="1.1" id="Layer_1" xmlns="http://www.w3.org/2000/svg" xmlns:xlink="http://www.w3.org/1999/xlink" x="0px" y="0px"
	 viewBox="0 0 2572.61 362.73" style="enable-background:new 0 0 2572.61 362.73;" xml:space="preserve">
<style type="text/css">
	.st0{fill:url(#SVGID_1_);}
	.st1{fill:#F7FBFC;}
	.st2{fill:url(#SVGID_00000140005469594612137570000011529223906041832106_);}
	.st3{fill:url(#SVGID_00000032646534598398058440000006597107043626439081_);}
</style>
<g>
	<linearGradient id="SVGID_1_" gradientUnits="userSpaceOnUse" x1="66.1533" y1="184.1124" x2="403.0499" y2="184.1124">
		<stop  offset="0" style="stop-color:#8000FF"/>
		<stop  offset="1" style="stop-color:#DF00FF"/>
	</linearGradient>
	<path class="st0" d="M356.45,352.56H112.75c-25.74,0-46.6-20.86-46.6-46.6V62.27c0-25.74,20.86-46.6,46.6-46.6h243.69
		c25.74,0,46.6,20.86,46.6,46.6v243.69C403.05,331.7,382.19,352.56,356.45,352.56z"/>
	<g>
		<g>
			<path class="st1" d="M175.33,147.89c0.21-1.3,0.48-2.9,0.75-4.47l-20.29,9.56c2.97,0,6.06,0,8.74,0.01L175.33,147.89z"/>
			<path class="st1" d="M189.58,141.18l94.09-44.31c0.01-1.79,0.01-2.84,0.01-2.84s0.06-0.54-0.04-1.27l-94.08,44.3L189.58,141.18z"
				/>
			<path class="st1" d="M249.68,151.42c0.92,0.85,2.38,1.61,4.66,1.57c0.23,0,0.5-0.01,0.79-0.01l28.49-13.42
				c-0.01-1.25-0.01-2.64-0.01-4.12L249.68,151.42z"/>
			<path class="st1" d="M255.89,88.62c-2.75,0-5.68,0-8.75,0L139.32,139.4c0,1.55,0,2.94,0,4.12L255.89,88.62z"/>
			<path class="st1" d="M240.79,88.62c-2.84,0-5.77,0-8.76,0l-92.72,43.66c0,1.44,0,2.82,0,4.12L240.79,88.62z"/>
			<path class="st1" d="M171.47,152.7c0.44-0.14,0.85-0.34,1.24-0.58L171.47,152.7z"/>
			<path class="st1" d="M225.69,88.62c-2.89,0-5.82,0-8.76,0l-77.61,36.55c0,1.4,0,2.78,0,4.12L225.69,88.62z"/>
			<path class="st1" d="M276.57,152.98c1.65,0.01,2.68,0.01,2.68,0.01s2.51,0,3.75-3.04L276.57,152.98z"/>
			<path class="st1" d="M283.62,111.12c0-1.42,0.01-2.81,0.01-4.13l-94,44.27l0.02,4.11L283.62,111.12z"/>
			<path class="st1" d="M270.27,152.96l13.39-6.31c0.02-0.36,0.02-0.74,0.02-1.15c-0.02-0.69-0.03-1.71-0.04-2.97l-22.1,10.41
				C264.32,152.95,267.43,152.96,270.27,152.96z"/>
			<path class="st1" d="M283.6,128.34l-36.19,17.04l0.81,3.74l35.39-16.66C283.6,131.13,283.6,129.75,283.6,128.34z"/>
			<path class="st1" d="M283.64,104c0-1.51,0.01-2.9,0.01-4.13l-94.06,44.3l0.02,4.11L283.64,104z"/>
			<path class="st1" d="M177.19,136.92h6.33l99.03-46.64c-0.76-0.87-2.02-1.56-4.11-1.61c-0.23,0-0.63-0.01-1.2-0.01L142.1,152.31
				c0.84,0.42,1.92,0.69,3.34,0.68c1-0.01,2.38-0.01,4-0.01l27.2-12.81C176.95,138.29,177.19,136.92,177.19,136.92z"/>
			<path class="st1" d="M232.88,248.79c0-1.3,0.01-2.68,0.01-4.13l-43.63,20.55c-0.53,1.18-1.35,2.27-2.64,2.67
				c-3.89,1.2-6.38,1.88-6.38,1.88s-4.17,1.35-4.17,4.53c0,0.25,0,0.68,0,1.25L232.88,248.79z"/>
			<path class="st1" d="M245.8,274.35c0,0-0.01-0.07-0.02-0.2l-69.81,32.88c0,1.23-0.01,1.95-0.01,1.95s0.24,0.8,1.03,1.69
				l68.83-32.41C245.81,275.86,245.8,274.35,245.8,274.35z"/>
			<path class="st1" d="M245.88,288.33l-52.26,24.61c2.64,0,5.62,0,8.76,0l43.52-20.5C245.89,291.06,245.88,289.68,245.88,288.33z"
				/>
			<path class="st1" d="M245.83,281.24l-66.23,31.19c0.97,0.37,2.19,0.6,3.71,0.56c0.73-0.02,2.09-0.03,3.92-0.04l58.62-27.61
				C245.85,283.89,245.84,282.51,245.83,281.24z"/>
			<path class="st1" d="M262.22,88.63l-122.91,57.88c0,0.86,0,1.34,0,1.34s0,1.21,0.69,2.46l130.95-61.67
				C268.51,88.63,265.57,88.63,262.22,88.63z"/>
			<path class="st1" d="M180.33,88.65c-3.06,0-5.99,0-8.77,0.01l-32.25,15.19c0,1.3,0,2.68,0,4.12L180.33,88.65z"/>
			<path class="st1" d="M210.57,88.63c-2.94,0-5.86,0-8.77,0l-62.49,29.43c0,1.37,0,2.75,0,4.12L210.57,88.63z"/>
			<path class="st1" d="M195.46,88.64c-2.98,0-5.91,0-8.77,0.01l-47.37,22.31c0,1.34,0,2.72,0,4.12L195.46,88.64z"/>
			<path class="st1" d="M165.21,88.66c-3.28,0-6.23,0.01-8.77,0.01l-17.12,8.06c0,1.14,0,2.54,0,4.12L165.21,88.66z"/>
			<path class="st1" d="M150.08,88.67c-2.41,0-3.75,0-3.75,0s-6.87-0.5-7.01,5.06L150.08,88.67z"/>
			<path class="st1" d="M233.07,149.14c0-1.49,0-2.87,0.01-4.13l-43.37,20.42l0.02,4.11L233.07,149.14z"/>
			<path class="st1" d="M232.85,255.92c0.01-1.2,0.01-2.58,0.02-4.13l-56.8,26.75c0,1.21-0.01,2.61-0.01,4.13L232.85,255.92z"/>
			<path class="st1" d="M190.15,261.81l42.76-20.14c0-1.33,0.01-2.71,0.01-4.13l-42.74,20.13l0.02,3.58
				C190.2,261.24,190.19,261.46,190.15,261.81z"/>
			<path class="st1" d="M232.94,227.43c0-1.35,0.01-2.73,0.01-4.13l-42.84,20.18l0.02,4.11L232.94,227.43z"/>
			<path class="st1" d="M232.88,263.01c-0.07-0.56-0.1-1.18-0.07-1.9c0.01-0.24,0.02-1.01,0.03-2.2l-56.79,26.74
				c0,1.34-0.01,2.73-0.02,4.13L232.88,263.01z"/>
			<path class="st1" d="M232.96,220.31c0-1.36,0.01-2.74,0.01-4.13l-42.89,20.2l0.02,4.11L232.96,220.31z"/>
			<path class="st1" d="M232.92,234.55c0-1.34,0.01-2.72,0.01-4.13l-42.79,20.15l0.02,4.11L232.92,234.55z"/>
			<path class="st1" d="M246.04,306.6c-0.02-1.07-0.03-2.48-0.05-4.1l-22.21,10.46c3.22,0.01,6.2,0.01,8.72,0.02L246.04,306.6z"/>
			<path class="st1" d="M237.44,267.98c-0.87-0.22-1.47-0.47-2.14-0.88c-0.58-0.36-1.13-0.82-1.56-1.5l-57.72,27.18
				c-0.01,1.4-0.01,2.79-0.02,4.13L237.44,267.98z"/>
			<path class="st1" d="M245.84,309.68l-7.03,3.31c1.13,0,1.76,0,1.76,0S244.82,313.57,245.84,309.68z"/>
			<path class="st1" d="M245.01,271.53c-0.55-1.15-1.48-2.3-3.02-2.7l-65.99,31.08c-0.01,1.51-0.01,2.91-0.02,4.13L245.01,271.53z"
				/>
			<path class="st1" d="M245.96,299.52c-0.01-1.31-0.02-2.69-0.03-4.11l-37.21,17.52c2.91,0,5.86,0.01,8.74,0.01L245.96,299.52z"/>
			<path class="st1" d="M233.02,184.73c0-1.39,0-2.76,0.01-4.13l-43.14,20.31l0.02,4.11L233.02,184.73z"/>
			<path class="st1" d="M233.06,156.26c0-1.44,0-2.82,0.01-4.13l-43.33,20.4l0.02,4.11L233.06,156.26z"/>
			<path class="st1" d="M233.05,163.38c0-1.41,0-2.79,0.01-4.13l-43.28,20.38l0.02,4.11L233.05,163.38z"/>
			<path class="st1" d="M233.04,170.49c0-1.4,0-2.78,0.01-4.13l-43.23,20.36l0.02,4.11L233.04,170.49z"/>
			<path class="st1" d="M232.97,213.19c0-1.37,0.01-2.74,0.01-4.13l-42.94,20.22l0.02,4.11L232.97,213.19z"/>
			<path class="st1" d="M233.08,142.03c0-1.86,0-3.27,0.01-4.13l-43.42,20.45l0.02,4.11L233.08,142.03z"/>
			<path class="st1" d="M235.17,136.92h8.76l39.68-18.69c0-1.39,0.01-2.77,0.01-4.13L235.17,136.92z"/>
			<path class="st1" d="M233.03,177.61c0-1.39,0-2.77,0.01-4.13l-43.19,20.34l0.02,4.11L233.03,177.61z"/>
			<path class="st1" d="M233,198.96c0-1.38,0-2.75,0.01-4.13l-43.04,20.27l0.02,4.11L233,198.96z"/>
			<path class="st1" d="M232.98,206.08c0-1.37,0.01-2.75,0.01-4.13L190,222.2l0.02,4.11L232.98,206.08z"/>
			<path class="st1" d="M233.01,191.84c0-1.38,0-2.76,0.01-4.13l-43.09,20.29l0.02,4.11L233.01,191.84z"/>
			<path class="st1" d="M246.02,138.93l0.81,3.74l36.78-17.32c0-1.36,0-2.74,0-4.13L246.02,138.93z"/>
		</g>
		
			<linearGradient id="SVGID_00000078734694968396802360000003173597328559970957_" gradientUnits="userSpaceOnUse" x1="88.412" y1="191.269" x2="386.0106" y2="191.269">
			<stop  offset="0" style="stop-color:#8000FF"/>
			<stop  offset="1" style="stop-color:#DF00FF"/>
		</linearGradient>
		<path style="fill:url(#SVGID_00000078734694968396802360000003173597328559970957_);" d="M267.09,309.26
			c-0.33,0-0.62-0.01-0.85-0.03c-2.59-0.01-23.93-0.06-39.77-0.06c-9.6,0-15.35,0.02-17.1,0.05c-0.13,0-0.27,0-0.4,0
			c-8.05,0-11.73-5.12-12.63-8.15l-0.24-0.82l0-0.86c0-0.31,0.13-31.52,0.13-34.66c0-5.11,4.11-8.73,8.18-10.05l0.12-0.04l0.12-0.03
			c0.02-0.01,2.1-0.58,5.37-1.58c0.14-0.42,0.28-1.04,0.32-1.54l-0.61-118.34h-1.73c-0.37,2.18-0.79,4.67-1.08,6.44l-0.03,0.19
			c-0.95,5.47-5.69,9.44-11.28,9.44c-3.27-0.01-9.27-0.02-14.68-0.02c-4.54,0-7.74,0.01-9.53,0.02l-0.12,0
			c-8.62,0-11.84-6.71-11.84-10.94V84.35c0-6.5,5.09-11.03,12.37-11.03c0.23,0,0.42,0.01,0.57,0.01c3.24,0,57.39-0.06,95.11-0.06
			c23.09,0,35.19,0.02,36.99,0.06c4.41,0.1,6.99,2.02,8.38,3.62c2.53,2.91,2.61,6.39,2.52,7.76c-0.01,3.31-0.17,44.06-0.01,51.11
			c0.1,4.46-1.06,7.96-3.45,10.41c-2.72,2.78-5.86,3-6.76,3c-0.12,0-8.99-0.04-16.3-0.04c-4.19,0-7.06,0.01-8.52,0.04
			c-0.09,0-0.17,0-0.26,0c-6.48,0-10.54-4.23-11.56-8.16l-0.03-0.12l-1.68-7.79h-2.04c-0.03,24.35-0.16,115.28-0.27,118.6
			c-0.02,0.45,0,0.76,0.03,0.97c0.46,0.15,1.37,0.31,3.46,0.66l0.45,0.08c5.73,0.96,8.67,6.15,9.03,10.88l0.02,0.21l0,0.21
			c0,0.27,0.13,27.19,0.25,33.19c0.09,4.21-1.56,6.8-2.96,8.22C272.88,308.17,270.13,309.26,267.09,309.26
			C267.09,309.26,267.09,309.26,267.09,309.26z"/>
		<path class="st1" d="M259.03,127.37h12.5l2.64,12.24c0,0,1.02,3.91,6.12,3.83c5.1-0.09,24.91,0,24.91,0s4.59,0,4.42-7.48
			c-0.17-7.48,0-51.48,0-51.48s0.63-5.23-5.23-5.36c-5.87-0.13-132.12,0-132.12,0s-7.01-0.51-7.01,5.23c0,5.74,0,53.94,0,53.94
			s0,5.19,6.12,5.14c4.83-0.03,18.63-0.01,24.24,0c2.74,0,5.11-1.94,5.58-4.64c0.01-0.04,0.01-0.08,0.02-0.12
			c0.64-3.95,1.91-11.31,1.91-11.31h12.37l0.64,124.32c0,0-0.26,5.61-3.57,6.63c-3.89,1.2-6.38,1.88-6.38,1.88s-4.17,1.35-4.17,4.53
			c0,3.19-0.13,34.69-0.13,34.69s1.23,4.14,7.35,4.01c6.12-0.13,57.26,0,57.26,0s5.61,0.76,5.48-5.36
			c-0.13-6.12-0.26-33.28-0.26-33.28s-0.38-4.97-4.21-5.61c-3.83-0.64-4.91-0.79-6.29-1.64c-1.38-0.85-2.62-2.28-2.49-5.98
			C258.88,247.87,259.03,127.37,259.03,127.37z"/>
	</g>
</g>
<g>
	<path d="M2466.9,287.21c-0.76,0.05-1.52,0.14-2.28,0.14c-8.11,0.01-16.23,0.01-24.34,0c-0.85,0-1.69-0.07-2.64-0.12
		c-0.13-0.66-0.3-1.19-0.33-1.73c-0.05-0.86-0.02-1.72-0.02-2.58c0-26.92,0.01-53.84-0.02-80.76c0-2.09-0.08-4.21-0.41-6.27
		c-1.96-12.14-12.7-21.29-22.08-23.56c-15.58-3.77-31.77,5.09-36.37,20.17c-1.04,3.41-1.37,6.91-1.36,10.46
		c0.01,18.14,0,36.28,0,54.41c0,8.78,0,17.57,0,26.35c0,1.04,0,2.08,0,3.24c-0.7,0.15-1.23,0.37-1.76,0.37
		c-8.78,0.02-17.57,0.02-26.35,0.01c-0.46,0-0.92-0.13-1.5-0.22c-0.09-0.62-0.2-1.16-0.23-1.71c-0.04-0.57-0.01-1.14-0.01-1.72
		c0-64.15,0-128.3,0-192.46c0-0.38-0.03-0.76-0.05-1.14c9.93,0,19.86,0,29.8,0c0.03,1.24,0.1,2.48,0.1,3.72
		c0.01,12.99,0,25.98,0,38.96c0,4.87-0.01,9.74,0.02,14.61c0,0.52-0.23,1.16,0.57,1.58c0.51-0.24,1.11-0.5,1.69-0.8
		c13.38-6.9,27.53-8.48,42.02-5.01c19.16,4.59,32.62,16.44,40.82,34.24c2.44,5.3,4.15,10.88,4.32,16.81
		c0.01,0.44,0.28,0.88,0.43,1.31C2466.9,226.09,2466.9,256.65,2466.9,287.21z"/>
	<path d="M673.95,90.09c0.06,0.76,0.16,1.52,0.16,2.28c0.01,8.4,0.01,16.8,0,25.2c0,0.66-0.07,1.32-0.1,1.91
		c-0.67,0.76-1.48,0.53-2.21,0.53c-4.77,0.02-9.55,0.01-14.32,0.01c-10.41,0-20.81-0.01-31.22,0.01c-1.03,0-2.09-0.18-3.2,0.27
		c-0.07,0.47-0.19,0.92-0.21,1.38c-0.03,0.95-0.02,1.91-0.02,2.86c0,52.89,0,105.77,0,158.66c0,1.22-0.05,2.45-0.07,3.8
		c-0.6,0.13-1.04,0.31-1.48,0.31c-8.97,0.01-17.95,0-26.92-0.01c-0.28,0-0.55-0.1-0.98-0.18c-0.1-0.5-0.28-1.03-0.31-1.57
		c-0.05-0.95-0.02-1.91-0.02-2.86c0-52.89,0-105.77-0.01-158.66c0-1.22,0.15-2.46-0.21-3.71c-1.07-0.47-2.13-0.3-3.15-0.3
		c-11.65-0.01-23.29-0.01-34.94-0.01c-3.63,0-7.26,0.01-10.88-0.01c-0.95,0-1.9-0.09-2.85-0.13c0-9.91,0-19.83,0-29.8
		C585.32,90.09,629.63,90.09,673.95,90.09z"/>
	<path d="M1967.23,90.09c0.13,0.64,0.38,1.28,0.38,1.93c0.02,8.69,0.02,17.38,0.01,26.07c0,0.55-0.14,1.1-0.24,1.83
		c-2.93,0.21-5.78,0.08-8.63,0.1c-2.77,0.02-5.54,0-8.31,0c-2.86,0-5.73,0-8.59,0c-2.77,0-5.54,0-8.31,0c-2.86,0-5.73-0.01-8.59,0
		c-2.75,0.02-5.51-0.09-8.42,0.1c-0.09,0.68-0.21,1.21-0.23,1.75c-0.04,0.95-0.01,1.91-0.01,2.86c0,52.8,0,105.61,0,158.41
		c0,1.23,0,2.46,0,3.82c-0.7,0.15-1.23,0.35-1.76,0.36c-8.78,0.02-17.57,0.02-26.35,0c-0.46,0-0.91-0.13-1.5-0.21
		c-0.08-0.63-0.19-1.17-0.21-1.72c-0.03-0.95-0.01-1.91-0.01-2.86c0-52.8,0-105.61,0-158.41c0-1.23-0.02-2.45-0.03-3.58
		c-1.14-0.78-2.22-0.5-3.24-0.5c-14.9-0.02-29.79-0.01-44.69-0.02c-1.03,0-2.1,0.21-3.23-0.34c-0.07-0.59-0.2-1.23-0.2-1.88
		c-0.01-8.5-0.02-17,0.01-25.49c0-0.74,0.25-1.48,0.38-2.21C1879.37,90.09,1923.3,90.09,1967.23,90.09z"/>
	<path d="M2257.17,287.78c-1.54-0.91-3.31-0.82-4.98-1.03c-15.61-1.94-28.95-8.55-40.3-19.34c-4.73-4.49-8.9-9.45-12.32-15.01
		c-5.75-9.34-9.09-19.47-10.13-30.4c-0.79-8.25-0.31-16.4,1.52-24.47c2.23-9.82,6.47-18.73,12.62-26.7
		c6.25-8.1,13.7-14.87,22.61-19.96c10.67-6.1,22.19-9.01,34.45-9.2c11.85-0.18,23.12,2.22,33.75,7.49
		c5.07,2.51,10.28,5.94,14.44,9.48c0.06,0.55,0.19,1.21,0.19,1.86c0.01,13.17,0.01,26.35,0,39.52c0,0.62-0.13,1.25-0.21,1.89
		c-0.97-0.02-1.26-0.7-1.68-1.16c-4.54-5.04-9.06-10.09-13.58-15.13c-6.4-7.14-14.24-11.77-23.74-13.32
		c-10.71-1.74-20.97-0.41-30.27,5.51c-8.98,5.73-15.69,13.46-18.62,23.84c-7.04,24.94,6.21,44.51,24.18,52.43
		c7.14,3.15,14.69,3.84,22.43,2.94c8.53-0.99,15.95-4.35,22.37-9.99c1.22-1.07,2.36-2.23,3.45-3.43c4.61-5.1,9.18-10.23,13.77-15.35
		c0.43-0.48,0.91-0.92,1.43-1.44c0.72,0.86,0.47,1.76,0.47,2.57c0.02,10.69,0.01,21.38,0.01,32.08c0,2.1,0.01,4.2-0.01,6.3
		c-0.01,0.85-0.07,1.7-0.11,2.56c-4.78,3.99-9.89,7.3-15.42,9.95c-7.02,3.36-14.39,5.56-22.14,6.48c-1.68,0.2-3.45,0.17-5.01,1.01
		C2263.29,287.78,2260.23,287.78,2257.17,287.78z"/>
	<path d="M1644.63,90.09c0.02,5.92,0.04,11.84,0.04,17.76c0.01,10.12,0,20.24,0.01,30.36c0,1.03-0.14,2.08,0.24,3.16
		c1.07,0.36,2.12,0.23,3.15,0.23c10.69,0.01,21.38,0,32.08,0.02c1.03,0,2.08-0.16,3.23,0.27c0.05,0.57,0.14,1.12,0.15,1.67
		c0.26,11.05,0.13,24.9-0.27,27.55c-0.93,0.5-2,0.28-3.01,0.28c-10.69,0.02-21.38,0.01-32.08,0.01c-1.04,0-2.07,0.04-3.23,0.06
		c-0.1,0.7-0.22,1.24-0.26,1.78c-0.04,0.67-0.01,1.34-0.01,2c0,26.06,0,52.13,0,78.19c0,1.14,0,2.27,0,3.55
		c0.79,0.15,1.42,0.36,2.05,0.37c2.48,0.06,4.96,0.06,7.45,0.08c1.05,0.01,2.09,0,3.27,0c0.13,0.62,0.34,1.15,0.34,1.68
		c0.02,8.78,0.02,17.57,0.01,26.35c0,0.46-0.11,0.91-0.18,1.5c-0.55,0.08-1,0.2-1.46,0.21c-5.83,0.12-11.65-0.05-17.4-1.13
		c-2.43-0.45-4.87-1.02-7.18-1.89c-8.97-3.38-14.07-10.1-16.2-19.27c-0.52-2.25-0.57-4.54-0.56-6.83
		c0.01-27.59,0.01-55.18,0.01-82.77c0-1.14,0-2.27,0-3.25c-0.87-0.88-1.77-0.62-2.6-0.62c-6.49-0.02-12.98-0.01-19.48-0.01
		c-1.04,0-2.08,0-3.22,0c-0.15-0.59-0.36-1.03-0.36-1.47c-0.02-8.97-0.02-17.95,0-26.92c0-0.36,0.12-0.72,0.22-1.27
		c0.99-0.05,1.92-0.13,2.85-0.13c6.49-0.01,12.98,0,19.48-0.01c0.93,0,1.86-0.09,2.67-0.13c0.19-0.36,0.34-0.52,0.34-0.69
		c0.04-16.89,0.06-33.79,0.09-50.68C1624.76,90.09,1634.69,90.09,1644.63,90.09z"/>
	<path d="M851.01,90.09c-0.04,0.66-0.1,1.33-0.1,1.99c-0.01,15.37-0.01,30.74,0,46.11c0,1.03-0.17,2.08,0.29,3.22
		c3.13,0.37,6.27,0.13,9.39,0.17c3.15,0.05,6.3,0.01,9.45,0.01c3.06,0,6.11,0,9.17,0c3.13,0,6.26-0.02,9.55,0.02
		c0.47,3.41,0.18,6.64,0.23,9.84c0.05,3.25,0.01,6.49,0.01,9.74c0,3.24,0,6.48,0,9.59c-1.1,0.94-2.2,0.58-3.2,0.59
		c-10.69,0.03-21.39,0.02-32.08,0.02c-1.03,0-2.06,0.06-3.27,0.1c-0.07,0.68-0.16,1.22-0.18,1.77c-0.03,0.67-0.01,1.34-0.01,2
		c0,26.06,0,52.13,0,78.19c0,1.14,0.03,2.27,0.05,3.55c0.78,0.14,1.41,0.33,2.04,0.35c2.58,0.06,5.15,0.06,7.73,0.08
		c0.95,0.01,1.9,0,2.96,0c0.15,0.55,0.37,0.98,0.37,1.41c0.02,8.88,0.02,17.76,0.01,26.64c0,0.46-0.13,0.91-0.22,1.43
		c-0.46,0.1-0.81,0.24-1.17,0.25c-6.02,0.16-12.03-0.05-17.97-1.15c-2.43-0.45-4.87-1.05-7.16-1.96
		c-9.9-3.96-15.07-11.56-16.34-21.97c-0.18-1.51-0.1-3.05-0.1-4.57c0-27.69,0-55.37-0.01-83.06c0-0.93,0.22-1.91-0.4-2.89
		c-2.59-0.37-5.26-0.12-7.91-0.16c-2.77-0.04-5.54-0.01-8.31-0.01c-2.66,0-5.32,0-8.11,0c-0.14-0.59-0.33-1.03-0.33-1.46
		c-0.02-8.97-0.01-17.95,0-26.92c0-0.36,0.1-0.72,0.18-1.23c1.66-0.32,3.27-0.14,4.86-0.17c1.72-0.03,3.44-0.01,5.16-0.01
		c1.62,0,3.25,0,4.87,0c1.72,0,3.44,0,5.16,0c1.62,0,3.24,0,4.98,0c0.16-0.64,0.37-1.15,0.42-1.68c0.07-0.85,0.02-1.72,0.02-2.58
		c0-14.51,0-29.02,0.01-43.53c0-1.24,0.11-2.47,0.16-3.71C831.14,90.09,841.07,90.09,851.01,90.09z"/>
	<path d="M749.01,90.09c0.13,0.74,0.38,1.48,0.38,2.21c0.02,12.89,0.02,25.78,0.01,38.67c0,0.64-0.14,1.29-0.21,1.89
		c-2.47,0.37-26.71,0.37-29.43,0c-0.37-0.92-0.24-1.97-0.24-2.99c-0.01-8.59-0.01-17.19-0.01-25.78c0-3.63-0.02-7.26,0.01-10.88
		c0.01-1.04,0.17-2.08,0.27-3.12C729.53,90.09,739.27,90.09,749.01,90.09z"/>
	<path d="M2150.37,223.12c-0.51,0.09-0.97,0.22-1.43,0.24c-0.95,0.04-1.91,0.02-2.86,0.02c-35.24,0-70.48,0-105.72,0.01
		c-1.22,0-2.46-0.15-3.84,0.26c0.09,0.81,0.08,1.56,0.25,2.26c0.7,2.79,1.69,5.47,3.09,7.99c4.17,7.51,9.9,13.53,17.27,17.95
		c6.04,3.62,12.68,5.25,19.65,5.45c11.37,0.33,21.42-3.1,29.9-10.83c3.57-3.25,6.45-7.02,8.88-11.16c0.67-1.15,1.33-2.31,1.97-3.42
		c2.7-0.34,29.56-0.31,31.89,0.05c-0.05,0.36-0.03,0.75-0.17,1.08c-2.28,5.36-4.45,10.76-7.26,15.88
		c-7.17,13.08-17.22,23.27-30.4,30.28c-8.02,4.26-16.59,6.66-25.62,7.61c-9.24,0.97-18.31,0.24-27.24-2.16
		c-13.17-3.54-24.18-10.67-33.47-20.56c-8.82-9.4-14.81-20.3-17.64-32.91c-1.35-6-1.82-12.08-1.7-18.21
		c0.2-10.06,2.32-19.67,6.58-28.81c7.44-15.96,24.59-34.42,48.99-39.85c7.41-1.65,14.89-2.18,22.48-1.62
		c9.66,0.71,18.87,3.02,27.36,7.66c19.97,10.9,32.77,27.3,37.58,49.71c1.55,7.24,1.83,14.57,1.66,21.94
		C2150.57,222.31,2150.45,222.67,2150.37,223.12z M2040.91,192.4c0.67,0.21,0.92,0.36,1.17,0.36c24.12,0.01,48.24,0.01,72.36,0
		c0.25,0,0.51-0.15,0.77-0.23c-1.25-3.29-6.56-9.14-11.71-13.03c-6.26-4.73-13.34-7.33-21.11-7.95
		C2064.54,170.13,2051.1,177.63,2040.91,192.4z"/>
	<path d="M1374.19,223.09c-0.51,0.1-0.96,0.24-1.42,0.27c-0.95,0.04-1.91,0.02-2.86,0.02c-35.23,0-70.47,0-105.7,0
		c-1.23,0-2.45,0.05-3.88,0.08c0.03,0.64-0.01,1.09,0.08,1.51c0.84,3.96,2.38,7.65,4.52,11.07c3.43,5.49,7.78,10.14,13.06,13.89
		c5.56,3.95,11.75,6.2,18.52,7.03c6.26,0.77,12.4,0.3,18.41-1.5c8.31-2.49,15.02-7.41,20.37-14.15c1.71-2.16,3.09-4.58,4.6-6.9
		c0.57-0.87,1.08-1.78,1.62-2.68c10.61,0,21.1,0,31.76,0c-0.04,0.4,0.01,0.76-0.12,1.06c-2.22,5.38-4.42,10.77-7.21,15.89
		c-7.53,13.82-18.22,24.4-32.35,31.4c-7.69,3.81-15.86,5.91-24.41,6.74c-9.05,0.88-17.92,0.11-26.66-2.24
		c-11.39-3.06-21.25-8.86-29.81-16.93c-7.53-7.1-13.54-15.27-17.54-24.85c-3.54-8.47-5.27-17.3-5.43-26.47
		c-0.15-8.58,0.96-16.95,3.72-25.08c3.59-10.6,9.55-19.71,17.43-27.59c8.52-8.52,18.41-14.8,30.02-18.24
		c8.79-2.6,17.75-3.45,26.9-2.79c9.65,0.7,18.87,3,27.35,7.65c20.63,11.31,33.59,28.35,37.95,51.66c1.22,6.51,1.38,13.09,1.31,19.68
		C1374.42,222.1,1374.28,222.55,1374.19,223.09z M1264.93,192.51c2.4,0.36,66.63,0.58,73.1,0.27c0.34-0.02,0.68-0.11,1.06-0.18
		c-1.56-3.78-7.35-9.97-12.74-13.8c-6.31-4.48-13.37-6.83-21.05-7.3c-8.45-0.52-16.53,0.86-23.99,5.08
		C1274.98,180.16,1267.94,186.95,1264.93,192.51z"/>
	<path d="M961.7,171.39c-3.87-9.46-7.7-18.81-11.51-28.16c-0.17-0.42-0.23-0.89-0.38-1.49c0.91-0.06,1.65-0.14,2.39-0.14
		c9.83-0.01,19.67,0.04,29.5-0.03c25.75-0.16,46.98,19.88,51.39,42.55c0.68,3.48,0.99,6.99,0.99,10.53c0.01,29.78,0,59.57,0,89.35
		c0,0.95-0.04,1.89-0.07,2.95c-0.66,0.15-1.19,0.37-1.73,0.37c-8.78,0.02-17.57,0.02-26.35,0.01c-0.46,0-0.92-0.13-1.55-0.23
		c-0.13-1.62-0.25-3.19-0.4-5.01c-13.47,6.05-27.07,6.93-40.86,2.2c-10.72-3.68-19.14-10.53-25.83-19.59
		c-12.99-17.59-12.95-43.63-0.74-61.08c2.81-4.01,6.06-7.61,9.75-10.83c3.69-3.22,7.75-5.88,12.19-7.94
		c4.44-2.07,9.09-3.47,13.93-4.17c4.84-0.7,9.68-0.8,14.56-0.26c4.85,0.53,9.5,1.81,14.04,3.46c0.44-0.63,0.06-1.02-0.18-1.37
		c-4.68-6.93-10.99-11-19.55-11.07c-5.44-0.04-10.88-0.03-16.32-0.05C963.91,171.39,962.87,171.39,961.7,171.39z M956.84,233.77
		c-0.57,12.33,10.19,23.66,23.49,23.67c12.92,0.01,23.66-10.71,23.67-23.62c0.02-13-10.88-23.64-23.63-23.66
		C967.18,210.14,956.27,221.47,956.84,233.77z"/>
	<path d="M1482.42,189.43c2.31-2.51,4.2-5.25,6.25-7.85c2.07-2.62,4.09-5.28,6.14-7.93c2.1-2.72,4.2-5.44,6.31-8.16
		c2.04-2.64,4.08-5.29,6.13-7.93c2.04-2.64,4.08-5.29,6.13-7.93c2.04-2.64,4.09-5.27,6.24-8.04c3.12,0,6.26,0,9.4,0
		c3.15,0,6.3,0,9.45,0c3.06,0,6.11,0,9.17,0c3.11,0,6.22-0.01,9.77,0.01c-2.38,3.6-4.84,6.47-7.13,9.48
		c-2.31,3.04-4.67,6.04-7.01,9.06c-2.34,3.02-4.68,6.04-7.02,9.05c-2.34,3.02-4.68,6.04-7.02,9.05c-2.28,2.94-4.56,5.89-6.84,8.83
		c-2.34,3.02-4.68,6.04-7.02,9.05c-2.34,3.02-4.68,6.03-7.02,9.06c-2.33,3.01-4.65,6.02-7.08,9.17
		c18.7,24.17,37.36,48.2,55.89,72.15c-0.21,0.86-0.73,0.82-1.18,0.82c-2.1,0.02-4.2,0.01-6.3,0.01c-8.88,0-17.76,0-26.64,0
		c-1.05,0-2.09,0-3.26,0c-12.48-16.07-24.84-32.17-37.45-48.4c-12.63,16.28-25.02,32.26-37.34,48.14
		c-2.49,0.34-34.82,0.35-37.33,0.04c-0.41-0.8,0.26-1.24,0.63-1.73c5.07-6.58,10.15-13.15,15.23-19.72
		c12.61-16.31,25.22-32.63,37.83-48.94c0.58-0.75,1.11-1.52,1.77-2.43c-3.71-4.92-7.48-9.71-11.19-14.54
		c-3.67-4.77-7.36-9.51-11.04-14.27c-3.74-4.83-7.47-9.67-11.21-14.5c-3.68-4.76-7.36-9.52-11.03-14.28
		c-3.73-4.83-7.46-9.66-11.14-14.43c0.43-1.02,1.2-0.68,1.79-0.68c8.5-0.02,16.99-0.02,25.49-0.02c3.34,0,6.68,0,10.07,0
		c0.59,0.7,1.15,1.33,1.67,2c11.23,14.48,22.46,28.97,33.7,43.45C1480.86,187.85,1481.38,188.77,1482.42,189.43z"/>
	<path d="M1191.34,287.03c-0.34,0.11-0.6,0.27-0.87,0.27c-9.07,0.02-18.14,0.03-27.21,0.03c-0.37,0-0.74-0.13-1.2-0.22
		c-0.1-0.47-0.26-0.92-0.29-1.38c-0.05-0.95-0.02-1.91-0.02-2.86c0-26.83,0-53.67,0.01-80.5c0-3.36-0.31-6.65-1.25-9.9
		c-2.54-8.78-11.89-18.89-23.63-20.56c-11.66-1.66-21.25,1.89-28.8,10.94c-4.34,5.2-6.31,11.26-6.55,17.95
		c-0.03,0.86-0.01,1.72-0.01,2.58c0,26.74,0,53.48,0,80.22c0,1.13-0.06,2.25-0.09,3.51c-0.62,0.11-1.07,0.25-1.52,0.25
		c-8.88,0.01-17.76,0.01-26.64,0c-0.37,0-0.75-0.1-1.26-0.18c-0.11-0.53-0.28-1.06-0.32-1.6c-0.06-0.86-0.02-1.72-0.02-2.58
		c0-45.74,0-91.48,0-137.23c0-1.23,0-2.46,0-3.81c0.61-0.13,1.05-0.31,1.49-0.31c8.98-0.02,17.95-0.01,26.93,0
		c0.36,0,0.73,0.1,1.26,0.17c0.42,2.36-0.05,4.74,0.29,6.97c0.92,0.29,1.43-0.24,2-0.53c6.66-3.53,13.76-5.71,21.24-6.4
		c18.82-1.72,35.3,3.52,48.91,16.92c9.96,9.81,15.66,21.74,17.45,35.55c0.32,2.45,0.41,4.95,0.41,7.43
		c0.03,27.41,0.02,54.81,0.01,82.22C1191.65,284.98,1191.8,286.04,1191.34,287.03z"/>
	<path d="M719.79,152.5c0.71-0.06,1.36-0.16,2-0.16c9.06,0.01,18.11-0.07,27.27,0.05c0.14,0.72,0.29,1.25,0.33,1.79
		c0.05,0.76,0.02,1.53,0.02,2.29c0,42.29,0,84.59-0.01,126.88c0,1.22,0.24,2.47-0.35,3.77c-0.64,0.07-1.28,0.2-1.93,0.22
		c-11.69,0.28-24.61,0.14-27.33-0.32c-0.08-0.47-0.21-1.01-0.26-1.55c-0.05-0.57-0.02-1.14-0.02-1.72c0-42.58,0-85.16,0.01-127.74
		C719.51,154.89,719.39,153.75,719.79,152.5z"/>
</g>
</svg>
